<?xml version="1.0" standalone="no"?>
<!DOCTYPE svg PUBLIC "-//W3C//DTD SVG 20010904//EN"
 "http://www.w3.org/TR/2001/REC-SVG-20010904/DTD/svg10.dtd">
<svg version="1.0" xmlns="http://www.w3.org/2000/svg"
 width="512.000000pt" height="512.000000pt" viewBox="0 0 512.000000 512.000000"
 preserveAspectRatio="xMidYMid meet">
<metadata>
Created by potrace 1.11, written by Peter Selinger 2001-2013
</metadata>
<g transform="translate(0.000000,512.000000) scale(0.100000,-0.100000)"
fill="#000000" stroke="none">
<path d="M1964 5108 c-4 -6 -3 -8 4 -4 16 10 26 -14 12 -27 -9 -9 -11 -9 -7
-1 4 7 -2 14 -12 17 -13 3 -18 0 -15 -7 3 -7 -2 -13 -10 -13 -8 0 -12 5 -9 11
4 6 0 5 -9 -2 -13 -10 -17 -10 -21 0 -3 7 -6 4 -6 -7 -1 -17 -3 -17 -11 -5 -8
12 -10 12 -10 -5 0 -12 -3 -16 -8 -9 -4 6 -19 10 -33 10 -23 0 -26 -4 -24 -25
3 -24 2 -24 -11 -6 -8 11 -14 13 -14 6 0 -7 -6 -11 -12 -8 -7 2 -19 -3 -26
-12 -8 -9 -10 -10 -6 -2 5 10 1 11 -15 6 -17 -5 -20 -3 -15 12 5 15 4 15 -4 3
-8 -10 -8 -18 0 -27 6 -8 8 -16 4 -20 -3 -3 -6 -1 -6 5 0 7 -8 12 -17 12 -15
0 -15 -2 -4 -9 20 -13 -16 -20 -46 -10 -14 5 -25 4 -29 -3 -5 -7 -3 -8 6 -3 9
5 11 4 6 -3 -4 -7 -14 -12 -22 -12 -8 0 -12 5 -9 10 10 16 -5 12 -23 -7 -16
-16 -16 -16 0 -10 10 3 19 3 22 -1 3 -4 -9 -9 -27 -10 -17 -2 -37 -8 -46 -15
-8 -7 -12 -7 -8 -1 3 6 0 11 -7 11 -8 0 -11 -8 -8 -20 4 -15 2 -18 -9 -11 -18
11 -40 14 -35 5 3 -4 1 -13 -5 -21 -6 -12 -9 -12 -9 -2 0 10 -4 10 -15 -2 -9
-8 -22 -13 -30 -10 -8 4 -15 1 -15 -6 0 -6 4 -9 8 -6 4 2 14 0 22 -5 13 -9 13
-10 0 -6 -8 2 -24 -3 -34 -12 -12 -10 -16 -11 -11 -2 6 10 2 12 -15 6 -17 -5
-21 -4 -15 5 5 8 4 11 -3 6 -6 -4 -9 -13 -5 -22 3 -9 0 -14 -8 -12 -7 2 -13
-4 -14 -12 0 -16 -21 -21 -45 -9 -11 5 -16 2 -17 -12 -1 -12 3 -17 9 -13 6 4
8 2 4 -4 -3 -6 -15 -9 -26 -7 -11 2 -20 -1 -20 -6 0 -6 -5 -7 -12 -3 -8 5 -9
1 -5 -12 7 -18 6 -18 -7 -1 -11 15 -15 15 -19 3 -3 -8 -1 -17 6 -20 11 -4 -30
-10 -62 -9 -9 1 -10 -2 -2 -10 6 -6 11 -15 11 -21 0 -6 -5 -5 -12 2 -7 7 -17
12 -23 12 -5 0 -4 -4 4 -9 10 -7 11 -12 1 -27 -7 -13 -10 -14 -7 -3 7 23 -20
19 -40 -5 l-18 -21 25 20 25 20 -19 -23 c-11 -13 -26 -20 -34 -17 -11 4 -12 2
-4 -8 9 -10 5 -13 -17 -11 -18 1 -28 -3 -28 -12 0 -10 4 -11 13 -3 13 10 32
-6 20 -18 -3 -4 -6 -1 -6 5 0 9 -5 9 -19 0 -11 -7 -17 -16 -14 -22 3 -5 1 -6
-5 -2 -6 4 -9 14 -6 24 4 12 2 12 -7 -3 -7 -11 -13 -27 -14 -35 0 -8 -6 -16
-12 -16 -7 -1 -19 -2 -26 -3 -16 -1 -65 -41 -52 -41 5 0 0 -6 -10 -14 -11 -8
-24 -12 -29 -9 -5 4 -6 1 -2 -6 6 -9 12 -9 24 1 15 12 16 11 3 -5 -8 -10 -21
-15 -29 -12 -10 4 -13 0 -9 -15 3 -11 0 -23 -5 -27 -7 -3 -8 -1 -4 5 4 6 -1
10 -13 9 -11 0 -17 -6 -13 -12 10 -15 11 -36 2 -30 -4 3 -13 -2 -20 -10 -9
-11 -16 -12 -26 -5 -10 9 -11 6 -7 -11 6 -20 3 -21 -23 -15 -21 5 -25 4 -14
-4 13 -8 8 -14 -11 -12 -3 1 -6 -6 -6 -14 0 -12 3 -12 17 1 9 8 21 15 26 15 5
0 1 -5 -9 -11 -9 -6 -15 -14 -13 -18 3 -4 -5 -8 -16 -8 -12 -1 -26 -7 -32 -14
-8 -9 -8 -10 1 -5 6 3 15 1 19 -5 4 -7 3 -10 -2 -7 -5 3 -19 2 -31 -3 -16 -6
-21 -14 -18 -29 4 -18 2 -20 -11 -9 -12 10 -13 9 -8 -6 5 -12 4 -16 -3 -12 -6
4 -13 0 -16 -8 -4 -9 -1 -12 9 -8 7 3 14 1 14 -5 0 -6 -11 -9 -24 -8 -19 2
-24 -1 -21 -16 3 -12 -4 -22 -18 -28 -13 -5 -16 -9 -7 -10 9 0 5 -6 -10 -13
-14 -7 -25 -19 -25 -27 0 -8 -5 -15 -12 -15 -6 0 -15 -4 -20 -9 -5 -5 -3 -6 5
-2 15 9 12 -21 -7 -49 -9 -14 -11 -15 -7 -3 3 12 1 15 -9 12 -22 -9 -26 -33
-7 -44 15 -11 15 -11 -2 -6 -14 5 -17 2 -12 -9 4 -11 2 -14 -6 -9 -8 5 -9 2
-5 -9 7 -19 -8 -32 -19 -16 -5 8 -3 9 6 4 9 -5 11 -4 6 4 -4 6 -12 9 -17 5 -5
-3 -7 -10 -4 -15 4 -5 1 -9 -6 -9 -8 0 -9 -3 0 -13 14 -18 -21 -53 -41 -41
-11 6 -11 5 0 -8 10 -12 10 -17 1 -20 -15 -5 -21 -38 -8 -38 6 0 8 -4 4 -9 -3
-6 -14 -8 -25 -6 -12 2 -18 0 -14 -6 3 -5 -4 -25 -15 -44 -14 -24 -17 -37 -9
-41 6 -4 8 -3 4 4 -3 6 -2 13 3 16 16 10 6 -22 -13 -43 -11 -12 -15 -25 -10
-33 5 -9 2 -8 -11 2 -17 14 -18 14 -8 -5 14 -28 5 -52 -11 -30 -10 14 -12 11
-8 -19 3 -27 0 -37 -12 -42 -13 -5 -14 -9 -5 -20 9 -11 9 -14 0 -14 -7 0 -9
-4 -6 -10 5 -9 -6 -14 -26 -12 -3 1 -5 -28 -5 -63 1 -46 -2 -61 -10 -54 -7 6
-16 4 -24 -6 -7 -8 -9 -15 -5 -15 4 0 1 -8 -6 -17 -10 -12 -11 -15 -1 -9 10 6
11 1 6 -21 -4 -15 -12 -34 -18 -42 -7 -10 -7 -13 0 -8 7 4 10 -9 10 -38 -1
-23 -4 -41 -9 -38 -4 2 -5 8 -2 13 3 5 1 11 -4 14 -5 3 -8 -8 -7 -25 1 -18 -3
-37 -9 -43 -7 -6 -10 -18 -7 -28 2 -10 -1 -18 -7 -18 -7 0 -9 -5 -6 -10 4 -6
12 -8 18 -4 7 3 4 -1 -5 -9 -19 -15 -25 -33 -9 -23 5 4 8 -2 6 -11 -2 -10 -4
-22 -4 -26 -1 -5 -7 -5 -13 -1 -10 6 -10 5 -1 -8 14 -16 8 -29 -11 -22 -8 3
-12 -16 -11 -68 0 -55 3 -72 13 -70 8 1 11 -2 7 -8 -3 -6 -11 -8 -16 -4 -7 4
-9 -78 -8 -235 1 -167 5 -241 13 -241 6 0 5 -4 -3 -9 -12 -8 -12 -12 2 -26 15
-15 15 -35 1 -35 -3 0 -3 4 1 9 3 5 2 12 -3 15 -4 2 -8 -6 -8 -20 0 -25 10
-32 21 -14 3 6 12 10 18 10 8 0 9 -3 1 -8 -19 -12 -24 -52 -7 -52 13 0 13 -3
3 -15 -7 -8 -16 -12 -21 -9 -5 3 -9 0 -9 -5 0 -14 13 -14 28 1 7 7 12 8 12 2
0 -6 -5 -15 -12 -22 -9 -9 -9 -12 3 -12 12 0 12 -2 -1 -10 -13 -9 -13 -10 0
-10 13 0 13 -1 0 -10 -12 -8 -12 -10 5 -11 11 0 15 -3 8 -5 -7 -3 -9 -12 -6
-20 5 -13 7 -13 14 -2 6 9 8 5 7 -12 -2 -18 1 -24 12 -22 12 3 13 1 3 -9 -11
-10 -16 -9 -28 7 -15 19 -15 19 -8 -1 3 -11 13 -24 20 -28 7 -5 11 -12 8 -18
-4 -5 0 -9 7 -9 9 0 9 -3 -2 -10 -10 -6 -11 -10 -3 -10 8 0 12 -16 10 -47 -2
-43 0 -48 21 -51 16 -3 22 -8 18 -19 -3 -8 -1 -24 6 -36 10 -21 10 -21 -7 -7
-17 14 -17 14 -5 -7 8 -12 19 -19 25 -16 5 4 7 2 2 -2 -4 -5 0 -20 9 -34 l15
-26 -20 23 c-21 24 -41 31 -21 7 6 -8 8 -20 4 -26 -4 -8 -3 -9 4 -5 7 4 12 2
12 -3 0 -6 5 -10 12 -8 8 1 12 -9 12 -25 -1 -16 3 -28 7 -28 5 0 9 -7 9 -15 0
-8 6 -15 13 -16 6 0 2 -5 -10 -11 -13 -6 -23 -16 -23 -22 0 -6 5 -5 12 2 18
18 32 14 17 -5 -13 -15 -12 -15 11 -3 23 12 24 12 11 -3 -11 -14 -11 -17 0
-17 11 0 11 -2 -1 -10 -12 -8 -12 -10 -1 -10 8 0 11 -7 8 -20 -3 -11 2 -25 11
-32 12 -10 14 -10 8 0 -4 6 -5 12 -2 12 3 0 10 -10 17 -21 8 -17 8 -20 -1 -14
-8 5 -11 3 -8 -6 3 -8 11 -13 17 -11 7 1 5 -8 -5 -25 -12 -21 -12 -23 -1 -10
17 20 26 12 29 -26 1 -14 6 -23 10 -21 4 3 5 12 2 22 -5 13 -4 14 4 3 5 -7 7
-21 5 -31 -3 -10 0 -21 6 -25 6 -3 10 -3 9 2 -2 4 2 8 7 8 5 0 9 -4 7 -8 -1
-4 3 -17 9 -29 6 -11 7 -18 2 -15 -5 3 -9 -3 -9 -13 0 -10 3 -18 6 -18 22 2
31 -4 26 -18 -3 -8 -2 -12 4 -9 10 6 14 -7 11 -33 -1 -6 3 -12 9 -12 6 0 9 4
5 9 -3 5 -2 12 3 15 13 8 11 -28 -2 -36 -8 -6 -7 -8 1 -8 7 0 17 8 22 18 8 13
9 10 5 -15 -4 -22 -3 -33 5 -33 7 0 9 -5 5 -12 -6 -10 -5 -10 8 -1 18 16 32 5
17 -14 -9 -10 -7 -13 9 -13 11 0 23 -8 27 -17 5 -15 4 -16 -6 -5 -7 6 -18 12
-23 12 -6 0 -3 -5 6 -11 9 -5 16 -15 14 -22 -1 -6 -1 -9 1 -4 3 4 12 7 21 7
15 0 15 -2 2 -10 -10 -6 -11 -10 -2 -10 6 0 21 -9 32 -20 25 -25 14 -26 -14
-3 -15 13 -15 11 3 -9 14 -16 29 -25 36 -20 6 4 3 -1 -8 -10 -17 -17 -17 -17
13 -13 18 2 29 1 26 -2 -3 -3 0 -13 7 -21 9 -13 9 -14 0 -8 -7 4 -13 2 -13 -3
0 -6 7 -11 15 -11 29 0 64 -46 59 -77 -3 -23 -2 -25 7 -10 5 9 15 15 20 11 6
-4 6 -10 -1 -19 -8 -10 -6 -13 7 -11 12 0 17 -5 17 -17 -2 -13 1 -15 11 -7 15
13 22 4 20 -26 -1 -11 4 -21 11 -21 10 0 11 4 2 14 -8 11 -7 12 6 7 9 -3 16
-15 16 -26 0 -16 5 -19 21 -15 12 3 18 3 15 0 -3 -4 0 -13 7 -22 11 -14 10
-14 -5 -2 -10 7 -18 9 -18 3 0 -16 26 -22 40 -9 10 10 12 8 6 -7 -5 -13 -2
-17 9 -13 8 4 17 1 21 -5 4 -7 3 -8 -4 -4 -7 4 -12 2 -12 -3 0 -6 5 -11 11
-11 5 0 7 -4 4 -10 -3 -6 1 -7 9 -4 9 3 16 10 16 15 0 5 5 9 12 9 6 0 4 -8 -6
-19 -13 -14 -14 -21 -5 -27 8 -5 10 -3 4 6 -5 9 -4 11 3 6 7 -4 12 -15 13 -24
0 -14 2 -13 9 3 l9 20 1 -20 c2 -11 2 -23 2 -26 -1 -4 8 -5 18 -2 22 6 28 -12
8 -21 -7 -3 -1 -3 14 0 21 5 28 1 33 -16 6 -18 9 -20 16 -9 6 10 9 8 9 -8 0
-13 4 -23 10 -23 5 0 9 3 7 8 -2 7 6 12 18 12 3 0 1 -10 -6 -21 -6 -12 -7 -19
-1 -16 5 4 18 0 28 -8 10 -8 24 -14 29 -15 6 0 3 5 -5 10 -10 7 -11 10 -2 10
7 0 16 -8 19 -17 8 -20 28 -43 38 -43 3 0 4 4 1 8 -3 5 1 9 9 9 8 0 11 -5 8
-10 -4 -7 1 -8 12 -3 15 5 16 4 5 -9 -10 -12 -10 -15 4 -15 9 0 16 -4 16 -9 0
-5 9 -11 20 -14 13 -3 18 -1 13 5 -3 7 -1 8 5 4 7 -4 12 -14 12 -22 0 -9 -5
-12 -12 -8 -7 4 -8 3 -4 -5 5 -8 12 -9 20 -2 7 6 17 6 26 1 8 -5 19 -6 25 -2
5 3 4 -2 -4 -11 -8 -10 -9 -17 -3 -17 6 0 14 5 18 11 9 16 27 -17 19 -34 -4
-6 1 -3 9 7 9 11 16 15 16 8 0 -6 10 -17 23 -23 21 -12 21 -11 7 7 -14 18 -14
18 4 4 11 -8 22 -14 25 -14 14 3 30 -9 25 -18 -3 -5 -12 -1 -20 9 -7 10 -14
13 -14 8 0 -18 22 -34 38 -28 11 5 13 3 7 -8 -8 -12 -6 -12 8 0 11 8 17 9 17
3 0 -6 6 -9 14 -6 7 3 21 -6 30 -21 14 -21 20 -23 36 -15 25 13 39 13 20 -1
-12 -9 -11 -10 7 -6 13 3 26 0 30 -5 3 -6 1 -8 -5 -4 -6 3 -13 2 -16 -3 -4 -5
2 -8 11 -6 10 2 18 4 18 5 0 1 8 3 18 5 9 2 15 -1 11 -6 -5 -9 4 -12 38 -12
10 0 15 -4 12 -9 -3 -5 6 -7 20 -4 14 3 28 0 32 -5 3 -5 9 -7 14 -4 5 3 12 0
16 -6 4 -8 3 -9 -4 -5 -7 4 -12 1 -12 -8 0 -10 6 -13 15 -10 8 4 22 1 30 -6 8
-7 15 -9 15 -5 0 4 7 2 15 -5 13 -11 14 -10 9 6 -6 16 -5 17 7 6 16 -15 33
-16 23 0 -5 7 -3 8 5 4 7 -5 10 -15 7 -23 -3 -8 -2 -12 3 -8 5 3 12 -1 15 -7
3 -7 4 -2 1 12 -3 14 -2 19 1 12 3 -6 10 -10 15 -7 5 4 6 0 3 -8 -7 -19 12
-32 22 -16 5 8 3 9 -6 4 -9 -5 -11 -4 -6 3 11 18 26 14 26 -5 0 -14 2 -15 9
-5 6 11 11 10 25 -3 9 -9 16 -12 16 -6 0 6 7 11 15 11 8 0 15 -4 15 -8 0 -5 7
-9 15 -9 11 0 12 4 3 14 -8 11 -7 12 6 7 9 -3 16 -10 16 -15 0 -5 5 -9 11 -9
5 0 8 4 5 8 -3 5 1 9 9 9 8 0 12 -4 9 -9 -3 -4 2 -8 10 -8 9 0 16 -4 16 -9 0
-11 19 -9 38 3 7 4 16 5 19 2 4 -3 0 -6 -8 -6 -8 0 -1 -7 14 -15 27 -14 62
-11 52 5 -8 12 21 6 38 -8 10 -9 17 -10 22 -2 3 5 11 10 16 10 6 0 7 -6 3 -12
-5 -9 -2 -9 9 1 14 11 17 11 17 0 0 -9 3 -10 8 -4 6 10 23 12 37 5 15 -8 31
-4 43 10 10 13 11 13 6 -2 -7 -21 6 -23 25 -6 9 8 11 8 8 2 -4 -7 0 -14 8 -17
9 -4 12 -1 9 7 -3 7 2 13 11 13 9 0 14 -6 11 -14 -3 -7 -1 -13 4 -13 6 0 10 8
10 18 0 13 2 14 9 4 11 -19 15 -19 34 -3 14 11 17 11 17 0 0 -12 2 -12 9 -1
11 18 16 19 32 5 10 -8 20 -9 29 -3 21 14 32 12 24 -2 -6 -10 -5 -10 7 -1 12
10 18 10 29 0 10 -10 12 -9 7 5 -4 12 -1 16 14 13 10 -2 24 -7 29 -10 6 -3 10
0 10 7 1 8 7 5 17 -7 15 -20 15 -20 10 4 -4 18 -3 21 6 12 13 -13 31 -15 22
-2 -3 5 0 13 6 17 8 5 9 3 4 -6 -5 -8 -3 -11 6 -8 7 2 22 -5 32 -16 10 -12 15
-14 11 -6 -5 8 -10 24 -11 35 -2 17 0 16 13 -5 14 -23 15 -23 11 -3 -5 22 -4
22 22 5 25 -16 25 -16 12 1 -12 15 -12 17 4 11 13 -5 16 -4 11 4 -9 15 26 3
36 -12 5 -7 8 -3 8 9 0 11 4 16 8 10 7 -11 62 -15 62 -5 0 3 -6 12 -12 20 -11
12 -10 12 5 1 9 -7 17 -10 17 -6 0 4 6 2 14 -4 11 -9 15 -8 20 4 3 9 2 13 -3
10 -5 -3 -12 -2 -14 2 -3 5 8 9 25 10 21 0 26 -2 17 -8 -9 -6 -10 -9 -2 -9 6
0 15 5 18 11 4 6 22 9 40 7 19 -1 38 2 42 6 5 5 1 6 -7 2 -9 -5 -8 -2 2 7 10
8 15 16 13 19 -9 9 39 3 54 -6 11 -7 13 -5 9 6 -4 8 -1 15 5 15 7 0 23 3 37 8
23 7 24 7 10 -11 -14 -17 -14 -18 2 -6 9 8 22 11 27 8 5 -4 13 -1 17 5 4 7 3
9 -3 6 -6 -4 -13 -1 -16 7 -3 8 1 13 11 13 46 0 63 4 58 12 -7 10 13 9 31 -2
6 -4 15 -2 19 4 4 7 3 9 -4 5 -6 -4 -10 1 -9 13 0 11 6 17 12 13 19 -12 34
-10 28 4 -3 8 0 14 6 14 6 0 11 -5 11 -11 0 -5 5 -7 10 -4 6 4 7 11 4 17 -4 6
1 6 14 -1 15 -8 23 -7 32 4 6 8 9 19 5 25 -3 5 -1 10 4 10 6 0 11 -4 11 -10 0
-5 5 -10 11 -10 5 0 7 5 4 10 -3 6 4 10 17 10 13 0 30 5 38 11 12 8 9 9 -10 4
l-25 -6 23 14 c12 7 19 17 15 22 -4 6 2 1 15 -10 23 -19 23 -19 16 1 -4 10 -4
16 1 12 4 -4 15 2 24 12 9 11 30 21 48 22 17 1 29 6 27 10 -3 5 -10 5 -16 2
-7 -4 -8 -2 -4 5 4 6 12 9 17 6 5 -4 9 -2 9 2 0 5 10 9 22 10 11 1 25 7 29 14
4 7 14 9 23 6 9 -4 15 -3 15 1 -3 20 2 33 11 27 6 -3 10 -2 10 4 0 5 -6 12
-12 14 -9 4 -10 6 -1 6 6 1 20 -7 29 -16 16 -16 17 -16 12 -1 -4 9 -2 19 5 22
9 3 8 5 -1 5 -7 1 -10 6 -7 11 5 8 11 7 21 -1 11 -9 14 -7 14 10 0 13 4 19 10
16 6 -4 7 -11 4 -17 -4 -5 4 -4 17 2 33 17 38 24 13 16 -14 -4 -21 -2 -21 8 0
8 6 12 15 8 11 -4 13 -2 7 9 -7 11 -5 11 10 -1 10 -8 16 -10 12 -3 -7 10 23
36 34 30 2 -1 -2 4 -10 11 -19 15 -7 16 22 0 20 -10 21 -10 9 5 -12 14 -11 16
6 12 13 -2 19 2 18 12 0 9 5 18 13 21 9 3 11 0 6 -8 -5 -8 -4 -11 3 -6 6 4 8
14 5 23 -4 11 -3 14 5 9 7 -4 12 -1 12 9 0 9 4 14 10 10 5 -3 6 -13 3 -23 -5
-14 -3 -14 9 2 9 11 13 29 10 40 -5 18 -3 19 10 8 13 -10 18 -10 24 -1 4 7 3
9 -3 6 -6 -4 -13 -1 -16 7 -4 10 0 12 14 9 11 -3 19 0 19 6 0 7 -5 9 -12 5 -7
-4 -8 -3 -4 4 4 7 16 12 28 12 14 0 18 5 14 16 -4 12 -2 15 9 10 8 -3 15 -1
15 4 0 6 -5 10 -12 10 -6 0 -8 3 -5 6 4 4 13 1 22 -6 9 -7 18 -10 22 -6 3 3 2
6 -4 6 -6 0 -14 7 -17 16 -5 14 -4 15 7 5 20 -16 42 10 24 29 -6 7 -7 11 -2 8
6 -3 26 1 45 8 33 13 33 14 5 9 -25 -4 -27 -3 -12 5 10 7 14 16 10 23 -4 7 2
5 12 -3 10 -8 16 -10 12 -3 -10 16 2 43 19 43 8 0 15 5 15 10 1 6 2 14 3 19 0
5 5 13 10 18 5 4 6 3 3 -3 -4 -7 0 -14 8 -17 9 -4 12 -1 8 9 -3 7 0 14 6 14 6
0 8 8 4 18 -6 15 -5 15 10 3 15 -12 17 -12 11 4 -6 14 -4 16 6 10 10 -6 12 -4
7 8 -3 8 1 21 9 28 12 10 13 9 8 -7 -5 -15 -4 -16 4 -4 7 9 7 18 1 26 -6 7 -4
16 6 24 8 7 15 9 15 5 0 -4 6 -2 13 4 8 6 16 9 18 6 3 -2 5 5 5 16 0 19 -1 19
-18 -3 -10 -13 -18 -18 -18 -12 0 6 18 26 39 45 33 27 38 36 28 48 -10 12 -9
13 2 6 11 -6 13 -4 7 10 -6 16 -4 16 11 4 10 -7 15 -9 11 -5 -4 5 -3 15 4 23
9 11 7 12 -8 7 -18 -5 -18 -5 0 6 15 10 20 9 27 -1 5 -8 9 -9 10 -4 0 6 2 18
4 28 3 14 0 16 -10 7 -10 -8 -15 -8 -21 1 -4 7 -3 9 3 6 5 -3 15 3 23 13 8 10
17 17 22 14 4 -3 5 2 2 11 -4 10 -2 14 8 10 9 -4 14 1 14 14 0 12 -5 17 -11
13 -6 -4 0 3 14 15 14 12 29 19 34 16 6 -3 7 -1 3 6 -4 6 -11 9 -16 6 -4 -3
-7 2 -6 11 1 8 9 20 17 25 10 6 10 9 2 9 -7 0 -13 5 -13 11 0 5 4 7 10 4 5 -3
20 1 32 9 12 9 17 16 11 16 -7 0 -11 12 -10 29 1 19 6 27 16 23 10 -4 11 -1 2
15 -8 17 -6 24 12 39 21 19 21 19 7 0 -14 -18 -14 -19 8 -5 12 8 18 15 12 17
-5 2 -10 10 -10 18 0 9 5 12 11 8 8 -4 8 0 0 15 -8 14 -8 21 -1 21 5 0 10 -5
10 -12 0 -6 3 -8 6 -5 4 4 1 14 -7 24 -9 11 -10 14 -1 9 6 -4 12 -3 12 1 0 5
-6 15 -12 23 -7 8 -2 6 12 -5 14 -11 22 -16 18 -11 -4 5 -3 15 4 23 9 11 7 12
-8 6 -17 -6 -17 -5 -5 10 7 9 11 23 8 31 -4 11 -1 13 11 9 15 -6 15 -5 3 10
-12 15 -10 18 10 26 13 5 20 10 15 10 -5 1 -3 7 3 15 9 10 9 16 1 21 -8 5 -5
12 7 22 10 8 13 12 6 9 -6 -4 -14 -2 -18 4 -3 5 2 10 12 11 11 0 13 3 5 6 -10
4 -10 8 -1 20 10 12 10 16 -2 24 -11 6 -8 9 11 9 22 1 23 2 7 11 -18 11 -14
29 6 29 7 0 6 -4 -3 -10 -8 -5 -10 -10 -4 -10 6 0 18 8 25 17 8 9 9 14 3 10
-7 -4 -14 2 -17 13 -3 11 -2 20 3 20 4 0 10 9 13 20 3 11 1 18 -4 14 -5 -3 -9
0 -9 5 0 6 6 11 13 11 9 0 8 3 -2 9 -10 7 -10 10 -1 13 10 3 10 9 1 25 -7 15
-8 24 -1 28 6 4 8 11 5 16 -8 13 9 11 22 -2 8 -8 11 96 11 397 0 225 -2 413
-5 417 -3 4 -11 3 -19 -4 -12 -10 -13 -9 -8 6 5 13 4 16 -5 10 -10 -6 -11 -3
-1 15 7 13 8 20 2 16 -6 -3 -14 -1 -18 5 -4 8 -3 9 4 5 7 -4 12 -2 12 4 0 6 5
8 12 4 7 -4 8 -3 4 5 -4 6 -13 8 -19 4 -7 -4 -5 2 3 12 8 10 10 16 4 12 -14
-8 -25 38 -12 51 6 6 3 15 -6 25 -19 19 -21 43 -3 51 6 3 -1 3 -18 0 l-30 -5
25 16 c14 9 17 14 8 11 -10 -3 -18 -1 -18 4 0 6 5 10 12 10 6 0 3 7 -8 16 -10
8 -12 13 -4 9 8 -4 6 1 -4 9 -11 9 -17 17 -13 17 4 1 11 2 16 3 5 0 13 5 18 9
4 5 1 7 -7 5 -10 -2 -14 4 -12 17 2 16 1 17 -7 5 -5 -8 -7 -18 -5 -22 3 -4 -3
-5 -12 -1 -11 4 -13 8 -6 11 7 2 12 13 12 23 0 11 -4 18 -9 14 -15 -9 -24 14
-11 30 7 9 8 15 0 20 -14 9 -13 27 3 20 6 -4 5 -1 -3 7 -33 28 -49 61 -40 79
8 14 3 21 -23 38 -17 11 -28 21 -23 21 5 0 3 6 -3 14 -10 11 -8 17 6 25 17 10
17 10 -1 11 -16 0 -17 2 -5 17 10 11 10 14 2 9 -8 -4 -13 -2 -13 7 0 8 -8 18
-17 21 -15 6 -15 8 -3 16 11 7 12 10 2 10 -8 0 -10 5 -6 13 6 9 4 9 -8 -1 -14
-11 -16 -10 -11 7 3 12 10 21 16 21 6 0 3 6 -8 13 -11 9 -15 19 -11 28 4 8 1
6 -7 -3 -17 -21 -31 -24 -24 -4 3 7 0 19 -6 26 -9 10 -9 11 0 6 9 -5 11 -2 7
9 -4 9 -12 14 -19 11 -20 -7 -26 5 -12 22 9 13 9 14 0 8 -9 -5 -13 0 -13 14 0
12 -4 18 -10 15 -5 -3 -10 1 -10 10 0 9 4 14 9 11 5 -4 7 4 3 16 l-5 22 -8
-22 c-5 -12 -12 -22 -15 -22 -4 0 -4 3 -1 7 4 3 1 13 -6 21 -9 13 -9 14 0 8 9
-5 11 -2 7 8 -3 9 -10 13 -15 10 -5 -3 -9 4 -9 15 0 12 5 21 12 21 6 0 8 3 5
6 -4 4 -13 1 -22 -6 -11 -9 -15 -9 -15 -1 0 7 -6 9 -12 5 -10 -6 -10 -4 0 7
17 18 15 30 -5 22 -11 -4 -14 -3 -9 5 4 7 2 12 -5 12 -8 0 -7 5 2 17 13 15 12
15 -6 5 -18 -9 -21 -7 -22 9 -1 11 3 17 8 13 6 -3 5 3 -2 14 -7 12 -17 18 -22
15 -5 -3 -4 -9 3 -13 7 -4 8 -10 4 -12 -5 -3 -18 4 -28 15 -16 17 -17 19 -3
14 12 -4 17 -1 17 9 0 10 -6 14 -15 10 -9 -3 -19 3 -25 15 -6 11 -16 16 -22
13 -7 -5 -8 -2 -3 6 6 10 12 8 27 -9 10 -13 18 -19 18 -15 0 17 -17 35 -35 38
-11 2 -21 8 -23 14 -2 7 3 10 12 6 9 -3 16 -1 16 5 0 6 -3 10 -7 10 -22 -4
-33 2 -27 14 5 7 0 6 -11 -3 -17 -14 -17 -14 -7 5 9 18 7 21 -11 22 -12 1 -23
7 -25 13 -2 5 -9 7 -15 3 -8 -4 -7 -1 1 9 10 13 10 17 -4 22 -9 3 -21 3 -27 0
-7 -3 -4 1 6 9 17 14 17 15 0 22 -10 5 -22 7 -26 6 -5 -1 -6 9 -3 21 3 13 3
17 0 11 -10 -22 -26 -14 -19 8 4 13 3 19 -3 15 -5 -3 -20 3 -32 14 -12 11 -31
22 -41 25 -11 4 -19 13 -19 21 0 8 5 12 10 9 6 -3 10 -1 10 4 0 14 -13 14 -26
1 -6 -6 -15 -5 -24 1 -13 9 -13 10 1 6 9 -3 16 1 16 9 0 7 -4 11 -8 8 -4 -2
-13 4 -19 13 -10 16 -11 16 -5 -2 4 -15 3 -17 -5 -9 -6 6 -12 20 -13 31 -1 14
-7 19 -24 17 -15 -1 -24 4 -28 17 -6 17 -9 18 -22 7 -15 -12 -15 -10 -3 12 12
23 12 24 -3 11 -20 -16 -23 -2 -4 19 10 12 9 12 -3 3 -15 -10 -55 -15 -45 -5
3 3 -1 12 -7 21 -8 10 -3 8 12 -4 l25 -20 -20 23 c-18 22 -20 23 -33 5 -10
-12 -13 -13 -10 -3 3 8 -1 21 -8 28 -11 10 -14 10 -14 0 -1 -7 -7 1 -15 17 -7
17 -14 24 -14 18 -1 -7 -6 -13 -12 -13 -5 0 -7 5 -3 11 4 8 -1 9 -17 4 -23 -7
-24 -7 -4 9 20 15 20 15 -2 11 -13 -2 -23 1 -23 6 0 6 -4 7 -10 4 -5 -3 -10 1
-10 9 0 8 -5 18 -12 22 -7 5 -8 3 -3 -5 6 -10 3 -11 -12 -2 -11 6 -24 7 -28 3
-5 -4 -5 -1 -1 6 4 7 12 10 17 7 5 -4 9 -1 9 5 0 7 -7 10 -15 6 -9 -3 -23 3
-32 13 -9 11 -23 17 -31 13 -9 -3 -13 -1 -9 4 3 6 -4 16 -16 24 -20 12 -21 12
-9 -3 11 -12 11 -17 0 -23 -7 -4 -10 -4 -6 1 7 7 -14 35 -27 35 -4 0 -13 7
-21 15 -8 8 -22 11 -31 8 -11 -5 -14 -3 -8 6 5 10 2 11 -13 7 -12 -4 -23 -2
-28 5 -5 8 -3 9 6 4 9 -5 11 -4 6 3 -4 7 -17 17 -29 22 -21 11 -21 11 -3 -4
11 -9 14 -16 8 -16 -7 0 -19 8 -28 18 -10 12 -26 17 -50 16 -31 -3 -33 -2 -19
12 19 20 20 30 0 14 -12 -10 -15 -10 -15 0 0 8 -3 10 -7 7 -3 -4 -15 1 -25 10
-15 14 -18 14 -13 2 4 -10 0 -16 -9 -16 -8 0 -12 6 -9 14 4 9 0 11 -11 7 -9
-3 -13 -10 -10 -15 3 -5 0 -9 -5 -9 -14 0 -14 13 0 27 8 8 8 13 0 17 -6 4 -11
4 -11 -1 0 -4 -5 -1 -11 7 -8 11 -9 9 -3 -10 l6 -25 -21 27 c-12 15 -29 25
-39 23 -9 -2 -17 -4 -17 -5 0 -1 -8 -3 -17 -5 -10 -2 -18 1 -18 7 0 6 8 7 18
3 14 -5 15 -4 4 7 -11 11 -16 9 -29 -7 -11 -14 -14 -15 -10 -3 3 9 -1 24 -10
35 -13 16 -14 16 -9 1 3 -10 0 -20 -6 -24 -7 -4 -8 -3 -4 4 4 8 0 12 -12 12
-10 0 -22 3 -26 7 -12 12 -36 12 -36 0 0 -8 -3 -7 -9 1 -4 8 -12 14 -16 14 -4
0 -12 -6 -16 -14 -7 -10 -9 -10 -9 0 0 6 -6 12 -14 12 -8 0 -17 3 -19 8 -3 4
5 7 18 7 13 0 21 -3 19 -6 -1 -3 3 -6 11 -6 19 0 19 13 0 21 -8 3 -278 5 -600
5 -421 0 -586 -3 -591 -11z m80 -10 c-4 -5 -9 -7 -12 -4 -3 3 -12 0 -21 -7
-14 -10 -14 -10 -4 4 13 16 46 23 37 7z m1043 -3 c0 -8 -4 -12 -9 -9 -5 3 -6
10 -3 15 9 13 12 11 12 -6z m-1242 -44 c-9 -8 -36 -10 -30 -2 2 4 11 8 20 8 8
0 13 -3 10 -6z m1541 -23 c3 -4 -1 -5 -10 -4 -8 1 -18 5 -22 8 -3 4 1 5 10 4
8 -1 18 -5 22 -8z m-822 -42 c14 -2 26 2 26 7 0 7 4 7 12 -1 14 -14 32 -16 24
-4 -3 5 1 9 9 9 8 0 12 -4 9 -9 -3 -4 0 -8 5 -8 6 0 11 6 12 13 0 9 2 9 5 0 4
-9 13 -9 30 -2 32 12 43 11 24 -1 -8 -5 -11 -12 -7 -16 3 -4 13 -1 22 6 12 10
15 10 16 -1 0 -10 2 -11 6 -1 3 8 10 5 22 -9 14 -18 18 -19 18 -6 0 9 -4 14
-9 11 -4 -3 -8 0 -8 5 0 6 7 11 15 11 8 0 15 -5 15 -11 0 -8 5 -7 15 1 9 7 18
10 22 6 4 -3 -2 -13 -13 -21 -13 -11 -14 -14 -4 -13 8 2 18 7 22 13 5 6 18 6
38 -2 27 -10 30 -10 19 3 -10 12 -9 13 5 8 9 -3 16 -11 16 -16 0 -6 7 -7 16
-4 10 4 13 2 8 -7 -4 -6 -4 -9 1 -5 4 4 15 2 23 -5 13 -9 14 -9 8 1 -5 8 -1
12 13 12 11 0 23 -5 26 -10 4 -6 12 -7 18 -3 18 11 36 12 43 2 3 -5 14 -9 25
-9 10 0 19 -5 19 -11 0 -5 -4 -7 -10 -4 -5 3 -10 2 -10 -4 0 -6 15 -7 37 -4
29 5 35 3 28 -8 -8 -12 -6 -12 8 0 11 9 17 10 17 2 0 -6 5 -11 11 -11 5 0 7 5
4 10 -3 6 -1 10 4 10 11 0 15 -15 11 -35 -1 -5 2 -6 7 -2 4 5 9 13 9 18 3 19
4 20 14 14 7 -4 6 -14 -2 -28 -10 -20 -10 -21 6 -7 21 16 49 23 40 9 -3 -5
-10 -6 -16 -3 -7 4 -8 2 -4 -4 5 -9 13 -9 29 0 19 10 21 9 9 -4 -10 -13 -10
-18 -1 -24 7 -4 9 -3 6 3 -4 6 0 14 9 17 10 4 13 2 8 -6 -5 -8 -2 -9 9 -5 10
3 17 2 17 -3 0 -6 5 -10 11 -10 5 0 8 4 5 8 -3 5 1 9 9 9 18 0 15 -20 -5 -29
-8 -4 2 -5 24 -3 32 4 37 3 32 -10 -3 -10 -2 -13 4 -10 6 4 23 8 38 10 15 2
21 2 15 -1 -19 -8 -16 -27 3 -20 8 3 12 2 9 -4 -3 -6 2 -11 12 -12 10 0 23 -2
28 -3 6 -2 16 -3 23 -4 6 0 12 -6 12 -12 0 -8 -6 -7 -17 2 -16 13 -17 12 -5
-3 8 -10 20 -14 29 -11 11 5 14 3 8 -6 -6 -11 -3 -11 16 0 23 12 23 11 9 -6
-9 -11 -10 -16 -2 -11 7 4 12 2 13 -6 0 -10 2 -10 6 0 8 20 26 14 20 -8 -3
-11 -2 -18 2 -16 4 3 13 1 21 -4 9 -5 20 -4 30 3 8 6 12 7 8 3 -12 -14 11 -36
29 -29 12 5 15 2 11 -8 -4 -11 1 -15 22 -13 23 2 27 -1 22 -15 -5 -13 -3 -14
10 -4 19 16 32 5 16 -14 -8 -11 -7 -12 6 -7 9 4 16 1 16 -6 0 -7 7 -10 15 -6
9 3 15 -1 15 -11 0 -13 2 -14 17 -2 15 13 15 12 4 -10 -7 -13 -8 -21 -3 -17 6
3 14 2 17 -4 4 -6 15 -8 26 -5 11 4 19 2 19 -5 0 -6 4 -9 9 -6 5 3 8 -2 7 -12
-1 -12 6 -16 24 -15 14 1 19 -1 12 -4 -10 -4 -9 -9 5 -20 10 -8 12 -11 4 -7
-9 4 -12 3 -7 -4 4 -6 14 -8 23 -5 10 4 14 2 9 -5 -3 -6 2 -13 12 -16 10 -4
25 -18 32 -31 7 -14 15 -23 18 -20 3 2 -1 11 -8 20 -7 8 -10 15 -6 15 3 0 8 0
11 0 3 0 5 -3 6 -7 3 -20 21 -43 30 -38 5 4 12 -1 15 -9 3 -9 10 -13 15 -10 5
3 9 -2 9 -10 0 -10 -6 -13 -17 -10 -15 5 -15 4 -3 -4 10 -8 19 -7 29 1 12 9
13 9 7 0 -6 -11 3 -17 25 -15 3 1 5 -9 5 -21 -1 -16 4 -21 17 -19 11 2 17 -2
16 -10 -3 -19 11 -48 24 -48 5 0 2 9 -7 19 -13 14 -14 21 -5 27 7 4 10 3 6 -3
-7 -12 16 -36 26 -27 3 3 3 -4 0 -17 -4 -14 -2 -20 5 -15 6 3 13 2 17 -4 4 -6
10 -8 15 -5 5 3 12 0 16 -6 4 -7 3 -9 -3 -6 -6 4 -17 0 -24 -9 -7 -9 -8 -14
-1 -12 6 2 22 -12 36 -31 14 -19 26 -30 26 -24 0 6 -7 16 -15 23 -8 7 -15 18
-15 24 0 6 5 3 11 -7 6 -9 15 -15 20 -11 5 3 9 2 8 -3 -1 -4 -1 -19 0 -32 1
-18 5 -22 20 -18 14 3 18 1 14 -9 -3 -8 -10 -11 -16 -7 -6 3 -7 1 -3 -6 4 -6
12 -9 17 -6 5 4 9 1 9 -5 0 -6 5 -8 13 -4 9 6 8 3 -1 -9 -12 -13 -10 -19 12
-38 14 -12 22 -27 19 -33 -4 -6 0 -5 9 1 18 15 32 5 17 -13 -13 -15 36 -68 54
-57 8 4 7 1 -1 -9 -10 -13 -10 -18 -1 -24 8 -4 9 -3 5 4 -4 7 -3 12 3 12 5 0
11 -10 13 -22 2 -13 8 -23 15 -23 6 0 15 -3 19 -7 3 -4 -3 -6 -15 -3 -11 2
-21 0 -21 -6 0 -5 5 -9 11 -9 5 0 7 -6 3 -12 -6 -10 -4 -10 8 0 13 10 17 10
22 -3 3 -9 2 -13 -4 -10 -6 4 -5 -5 2 -19 6 -14 16 -26 21 -26 5 0 3 8 -4 18
-13 15 -12 16 3 3 10 -7 16 -17 13 -21 -3 -5 2 -16 11 -24 11 -12 12 -16 2
-16 -10 0 -10 -2 1 -9 7 -5 10 -14 7 -20 -4 -6 4 -16 19 -23 18 -8 22 -14 13
-20 -8 -5 -9 -8 -2 -8 7 0 14 -9 17 -20 3 -12 1 -18 -5 -14 -6 4 -5 -3 1 -15
7 -11 14 -21 17 -21 3 0 2 5 -2 12 -4 7 -3 8 4 4 6 -4 8 -14 5 -23 -5 -12 -2
-15 10 -10 9 3 17 2 17 -3 0 -6 -8 -10 -17 -10 -17 -1 -17 -1 -1 -11 11 -6 15
-16 11 -26 -5 -12 -3 -14 7 -8 8 5 11 4 7 -3 -9 -13 2 -44 13 -37 5 3 7 -6 6
-20 -2 -13 1 -22 6 -19 5 3 7 -6 4 -20 -3 -14 0 -26 5 -26 5 0 9 -5 9 -11 0
-5 -4 -7 -10 -4 -5 3 -10 1 -10 -5 0 -7 7 -10 15 -6 9 3 15 0 15 -10 0 -9 -5
-12 -12 -8 -9 5 -9 2 1 -9 16 -20 25 -23 15 -4 -5 9 -3 9 7 -1 12 -11 12 -14
-1 -22 -13 -8 -12 -10 3 -10 12 0 16 -4 10 -12 -11 -19 -13 -39 -2 -32 5 3 9
-5 9 -18 0 -42 3 -57 12 -52 4 3 4 14 -2 24 -7 13 -7 21 0 25 6 4 10 3 9 -2
-4 -22 2 -34 14 -27 10 6 10 4 0 -7 -16 -16 -17 -69 -2 -69 8 0 7 -6 -2 -17
-10 -11 -10 -14 -1 -9 6 4 12 3 12 -3 0 -5 -4 -13 -10 -16 -5 -3 -10 -12 -10
-18 0 -7 4 -6 10 3 7 11 9 8 8 -15 -1 -16 -7 -34 -13 -38 -6 -5 -3 -7 8 -3 18
6 24 -9 7 -19 -10 -6 -2 -35 10 -35 5 0 7 9 5 20 -2 11 0 18 5 15 5 -3 7 -17
4 -31 -3 -15 -1 -23 5 -20 11 7 8 -20 -4 -31 -4 -4 -5 -2 0 6 6 10 4 12 -5 6
-10 -6 -9 -11 5 -21 16 -12 16 -16 4 -31 -12 -15 -12 -16 5 -10 16 7 17 5 5
-9 -14 -16 -21 -56 -8 -49 4 3 9 -4 12 -15 3 -11 0 -23 -5 -27 -7 -4 -8 -1 -3
7 5 8 4 11 -3 6 -14 -9 -4 -38 12 -31 6 3 3 0 -6 -7 -15 -11 -15 -13 0 -26 16
-13 16 -13 -1 -8 -14 5 -16 2 -8 -13 6 -10 7 -22 3 -26 -4 -5 -1 -5 6 -1 7 4
9 12 6 18 -4 7 -2 8 4 4 6 -4 8 -14 5 -23 -5 -12 -3 -14 7 -8 8 5 11 4 6 -3
-4 -6 -14 -8 -24 -5 -15 6 -14 3 2 -16 16 -18 17 -21 3 -16 -14 6 -15 2 -7
-25 8 -27 7 -31 -7 -25 -14 5 -13 2 3 -16 10 -12 14 -19 8 -16 -13 8 -28 -20
-15 -28 13 -8 19 -55 8 -62 -6 -4 -7 -1 -2 7 6 9 4 11 -4 6 -9 -6 -8 -13 6
-29 10 -11 13 -17 6 -14 -6 4 -14 3 -18 -3 -3 -5 0 -10 7 -10 11 0 10 -2 0 -9
-11 -6 -10 -10 4 -15 12 -5 14 -10 6 -18 -6 -6 -8 -18 -5 -27 4 -13 3 -14 -5
-1 -8 10 -8 18 0 27 7 9 7 13 0 13 -14 0 -20 -21 -12 -50 8 -31 1 -70 -12 -70
-5 0 -6 5 -3 10 10 16 -1 12 -15 -6 -8 -8 -9 -14 -4 -13 19 3 34 -1 34 -10 0
-6 -9 -8 -20 -6 -12 2 -18 0 -15 -6 4 -5 11 -7 16 -4 5 4 9 1 9 -4 0 -6 -5
-11 -11 -11 -6 0 -9 -6 -6 -13 3 -8 1 -20 -3 -27 -5 -8 -4 -22 1 -32 12 -23
-5 -58 -29 -59 -14 0 -13 -2 3 -8 11 -5 24 -6 29 -3 5 3 6 0 2 -6 -4 -6 -12
-9 -19 -6 -7 2 -13 -4 -14 -16 -1 -12 2 -18 9 -14 7 4 8 2 4 -5 -4 -6 -11 -9
-15 -7 -4 3 -12 -4 -19 -15 -10 -16 -10 -21 3 -25 8 -3 12 -10 9 -15 -3 -5
-10 -6 -16 -3 -6 4 -6 -1 1 -14 15 -28 14 -32 -8 -32 -11 0 -23 -5 -27 -12 -4
-6 -3 -8 4 -4 7 4 10 -2 9 -14 -1 -14 -6 -19 -17 -15 -11 5 -12 3 -3 -6 14
-14 6 -42 -10 -32 -5 3 -7 1 -4 -4 4 -6 1 -16 -7 -22 -17 -14 -15 -39 5 -52
10 -8 8 -9 -9 -4 -20 6 -21 4 -12 -21 9 -22 8 -25 -3 -16 -11 9 -13 7 -12 -11
3 -27 -13 -49 -29 -40 -6 4 -5 0 2 -9 10 -13 10 -18 1 -24 -8 -5 -10 -3 -4 7
5 8 4 10 0 6 -12 -10 -16 -39 -5 -32 5 3 12 0 16 -7 4 -7 4 -10 -1 -6 -9 8
-50 -11 -41 -19 3 -3 -2 -12 -12 -20 -9 -8 -12 -12 -6 -9 7 3 14 -1 17 -9 4
-9 1 -12 -7 -9 -7 3 -16 -2 -19 -10 -4 -10 -13 -13 -24 -10 -15 5 -15 4 -3 -5
12 -8 12 -13 2 -23 -6 -6 -12 -22 -12 -35 0 -13 -5 -23 -11 -23 -5 0 -7 4 -4
10 3 6 -1 7 -10 4 -14 -6 -14 -8 2 -20 11 -9 13 -13 4 -12 -7 2 -16 -3 -19
-11 -3 -9 0 -11 8 -6 9 5 11 4 6 -4 -5 -7 -17 -9 -29 -5 -21 6 -21 6 2 -15 13
-11 19 -21 13 -21 -6 0 -14 5 -17 10 -10 17 -24 2 -18 -20 3 -12 0 -20 -6 -20
-7 0 -9 6 -5 13 4 6 3 8 -1 4 -9 -7 -15 -28 -17 -54 -1 -7 -8 -13 -15 -13 -9
0 -11 5 -7 13 4 6 3 8 -1 4 -12 -10 -15 -38 -4 -31 5 3 9 0 9 -6 0 -8 -10 -10
-27 -6 -16 4 -23 3 -18 -1 14 -11 18 -36 5 -28 -7 4 -14 -2 -17 -15 -3 -12
-11 -19 -19 -16 -8 3 -11 0 -8 -9 5 -12 -32 -42 -47 -38 -3 1 -6 -4 -6 -12 0
-11 6 -10 26 3 l26 16 -25 -25 c-13 -13 -28 -23 -32 -22 -8 3 -12 -13 -9 -31
1 -5 -5 -6 -13 -3 -20 8 -28 -3 -14 -20 6 -7 8 -16 4 -20 -3 -3 -6 0 -6 8 0 8
-7 4 -16 -9 -9 -13 -22 -21 -30 -18 -17 7 -19 -10 -1 -18 6 -3 0 -4 -15 -3
-24 4 -26 2 -17 -16 9 -15 8 -18 -2 -12 -9 6 -11 3 -6 -8 4 -11 2 -14 -8 -11
-7 3 -12 14 -10 25 2 11 0 17 -6 14 -5 -4 -7 -10 -4 -15 3 -5 1 -12 -5 -15 -8
-5 -8 -11 0 -20 9 -11 8 -13 -8 -10 -12 2 -27 -4 -34 -13 -10 -12 -10 -14 0
-8 7 4 12 2 12 -5 0 -6 -8 -9 -19 -6 -14 3 -18 1 -14 -9 3 -8 10 -11 16 -7 6
3 7 1 3 -6 -4 -6 -12 -9 -17 -6 -5 4 -9 2 -9 -3 0 -5 -10 -9 -22 -8 -14 1 -22
-4 -20 -12 1 -7 -4 -23 -13 -35 -8 -12 -15 -17 -15 -11 0 5 5 15 11 21 8 8 7
13 -2 18 -8 5 -10 4 -5 -3 4 -7 2 -12 -3 -12 -6 0 -11 -8 -11 -17 0 -15 -2
-16 -10 -3 -9 14 -15 7 -11 -14 1 -5 -6 -6 -15 -2 -14 5 -15 4 -5 -8 8 -10 9
-16 1 -21 -5 -3 -10 -1 -10 5 0 7 -5 6 -14 -2 -8 -7 -12 -15 -11 -18 2 -3 0
-12 -4 -19 -6 -10 -10 -9 -14 4 -5 10 -3 14 5 9 7 -4 8 -3 4 5 -4 6 -12 9 -17
5 -5 -3 -7 -10 -3 -15 3 -6 -3 -13 -15 -16 -12 -3 -21 -12 -21 -19 0 -8 -5
-14 -11 -14 -5 0 -7 -5 -3 -12 5 -7 3 -8 -5 -3 -9 5 -10 10 -2 18 6 6 11 16
11 22 0 5 -14 -10 -30 -35 -16 -25 -30 -39 -30 -32 0 6 -5 12 -11 12 -5 0 -7
-5 -4 -10 3 -6 -3 -11 -14 -11 -40 -3 -46 -5 -44 -16 3 -13 -35 -28 -44 -19
-4 3 -12 1 -20 -5 -11 -10 -11 -15 -1 -27 11 -13 10 -14 -10 -3 -21 11 -24 10
-29 -8 -4 -16 -9 -19 -18 -11 -9 8 -15 8 -20 0 -3 -6 -11 -8 -16 -4 -5 3 -8 0
-7 -8 2 -7 -3 -12 -10 -10 -7 1 -15 -5 -18 -13 -5 -13 -9 -13 -22 -3 -12 10
-14 10 -8 1 4 -8 2 -13 -4 -13 -6 0 -8 -5 -4 -11 4 -7 1 -10 -7 -7 -8 3 -13
11 -11 17 1 7 -2 10 -8 6 -6 -3 -7 -11 -4 -17 5 -8 1 -9 -10 -5 -10 4 -15 3
-11 -3 3 -6 1 -10 -5 -10 -6 0 -8 -5 -4 -12 5 -8 0 -7 -11 2 -11 9 -16 10 -11
3 11 -20 -12 -15 -24 5 -11 16 -11 16 -6 -2 5 -14 2 -17 -9 -12 -11 4 -14 2
-9 -6 5 -8 0 -9 -17 -5 -22 5 -22 5 -6 -7 16 -13 16 -14 -7 -18 -14 -3 -23 -2
-21 3 7 10 -22 5 -32 -6 -4 -4 -2 -5 4 -1 9 5 11 2 6 -9 -4 -13 -8 -14 -14 -4
-11 18 -36 19 -50 2 -10 -12 -10 -16 2 -24 9 -5 10 -9 2 -9 -7 0 -17 8 -22 18
-10 16 -10 16 -11 -1 0 -10 -5 -15 -10 -12 -6 4 -18 1 -27 -7 -9 -7 -14 -8
-10 -2 5 8 -4 11 -26 10 -24 -2 -31 -6 -29 -19 2 -9 -2 -17 -8 -17 -5 0 -10 4
-10 9 0 8 -21 8 -40 1 -3 -1 -9 -2 -14 -1 -5 1 -6 -4 -3 -12 3 -7 -1 -14 -9
-14 -7 0 -11 4 -8 9 8 13 -10 10 -25 -4 -8 -7 -11 -8 -8 -2 3 6 0 11 -8 11 -8
0 -12 -4 -10 -8 3 -3 -2 -12 -9 -18 -11 -9 -17 -7 -29 9 -12 18 -15 19 -21 5
-3 -9 -2 -13 4 -10 6 3 10 1 10 -5 0 -7 -6 -10 -14 -7 -7 3 -19 0 -26 -6 -10
-10 -10 -7 -1 10 7 15 8 24 1 28 -6 4 -10 3 -9 -2 1 -4 -3 -19 -9 -33 -9 -21
-11 -22 -11 -6 -1 20 -1 20 -17 0 -8 -10 -13 -14 -10 -8 3 7 -1 15 -10 18 -9
4 -13 2 -8 -5 4 -7 1 -10 -7 -7 -8 3 -13 11 -11 17 1 7 -2 10 -8 6 -6 -3 -8
-11 -5 -16 3 -5 -8 -7 -25 -5 -17 2 -33 -1 -36 -6 -3 -5 -13 -3 -22 4 -12 10
-14 10 -8 1 4 -7 3 -13 -3 -13 -5 0 -11 6 -14 13 -3 9 -7 9 -20 -2 -12 -9 -17
-10 -17 -2 0 7 -5 9 -10 6 -6 -4 -7 -12 -3 -18 3 -7 -4 -3 -16 7 -22 20 -22
20 -15 0 4 -10 4 -16 -1 -12 -4 4 -14 3 -22 -3 -9 -9 -13 -8 -13 0 0 6 5 11
10 11 6 0 10 5 10 12 0 9 -3 9 -11 1 -8 -8 -20 -8 -36 -2 -18 6 -25 5 -29 -5
-3 -9 -16 -13 -32 -11 -15 2 -31 4 -35 4 -5 1 -5 7 -1 14 5 9 4 9 -6 0 -10 -9
-17 -9 -26 -2 -9 7 -19 7 -35 -1 -12 -7 -19 -8 -15 -2 7 11 -12 11 -31 -1 -8
-5 -13 -3 -13 4 0 8 -4 8 -15 -1 -11 -9 -15 -9 -15 -1 0 15 -81 11 -93 -4 -5
-6 -7 -4 -4 5 2 8 9 15 14 15 6 0 15 4 20 8 4 5 1 7 -7 5 -8 -2 -14 3 -12 10
1 8 -2 11 -8 7 -6 -3 -8 -9 -6 -13 2 -4 -8 -16 -23 -26 l-26 -20 19 22 c19 22
19 22 0 23 -10 1 -23 1 -28 0 -5 -1 -22 3 -38 8 -20 7 -27 7 -22 0 4 -8 1 -8
-12 -1 -11 5 -28 6 -39 2 -12 -4 -29 -1 -42 8 -13 8 -23 11 -23 7 0 -4 -6 -2
-13 4 -8 6 -16 8 -19 5 -3 -3 -9 -1 -12 5 -4 6 2 8 14 6 11 -2 20 0 20 6 0 10
-28 8 -49 -5 -10 -6 -12 -5 -7 2 9 14 -6 16 -20 3 -5 -6 -16 -4 -28 5 -11 8
-16 14 -12 14 5 0 3 7 -4 15 -12 14 -15 14 -31 -1 -17 -15 -19 -15 -25 -1 -3
8 -12 18 -20 21 -8 3 -13 2 -10 -2 3 -5 -1 -9 -8 -9 -8 0 -12 7 -9 16 3 11 0
10 -13 -4 -12 -15 -15 -16 -11 -3 7 19 -43 44 -69 34 -15 -6 -15 -4 -3 11 9
10 9 14 2 10 -17 -10 -76 21 -67 35 4 7 3 8 -5 4 -6 -4 -9 -13 -5 -19 3 -7 -2
-3 -10 7 -12 15 -16 16 -17 5 0 -10 -2 -10 -6 -1 -2 6 -9 12 -14 12 -6 0 -8
-4 -5 -8 3 -5 -1 -9 -8 -9 -8 0 -11 8 -8 19 2 10 9 15 16 11 6 -4 5 1 -3 10
-16 20 -33 13 -24 -11 4 -11 -1 -9 -15 7 -15 16 -22 19 -23 10 0 -10 -2 -11
-6 -1 -2 6 -9 10 -14 6 -5 -3 -9 2 -9 12 0 13 -3 14 -14 5 -12 -10 -13 -8 -8
11 5 21 4 22 -13 8 -11 -9 -16 -10 -11 -2 4 7 2 12 -4 12 -6 0 -8 4 -5 10 4 6
-1 7 -11 3 -12 -4 -15 -3 -10 5 5 8 2 10 -9 6 -10 -4 -15 -2 -13 6 2 9 -8 14
-25 14 -17 1 -36 11 -48 26 -12 14 -18 19 -14 13 13 -25 -5 -12 -20 15 -15 26
-16 26 -10 2 l6 -25 -14 23 c-7 12 -16 20 -20 16 -3 -4 -9 1 -13 10 -3 9 -13
16 -21 16 -8 0 -12 3 -10 8 3 4 -4 16 -15 27 -19 20 -19 20 -13 0 4 -16 3 -15
-6 2 -7 13 -18 23 -25 23 -7 0 -15 9 -19 19 -4 13 -13 18 -25 16 -14 -3 -18 1
-15 17 3 11 2 18 -2 15 -3 -4 -12 1 -20 11 -10 11 -12 12 -8 2 3 -8 -2 -5 -11
7 -9 13 -25 23 -35 23 -11 0 -19 4 -19 10 0 5 8 7 17 4 15 -5 15 -4 3 4 -9 7
-18 7 -26 1 -8 -6 -14 -4 -18 6 -3 9 -2 13 3 10 5 -3 13 0 17 6 4 7 3 9 -2 6
-6 -3 -18 7 -29 23 -15 23 -21 26 -30 15 -8 -11 -12 -11 -25 3 -13 14 -12 15
3 9 9 -3 17 -2 17 3 0 6 -5 10 -11 10 -6 0 -17 6 -25 14 -7 8 -19 17 -26 19
-10 4 -9 8 2 16 13 9 12 11 -6 11 -25 0 -44 18 -44 43 0 16 -3 17 -14 8 -11
-9 -16 -9 -22 0 -4 7 -3 9 3 6 15 -9 24 18 10 32 -8 8 -15 7 -26 -2 -12 -9
-13 -9 -7 1 4 7 2 12 -6 12 -9 0 -9 3 2 10 13 8 12 10 -4 10 -13 0 -17 5 -13
20 6 24 -16 44 -41 38 -11 -3 -19 0 -19 8 0 7 3 11 7 9 15 -9 2 36 -15 55 -18
20 -20 20 -32 4 -16 -21 -16 -14 -3 22 10 25 9 26 -15 22 -20 -4 -23 -3 -14 8
9 11 8 14 -1 14 -9 0 -9 4 1 17 13 15 12 15 -11 3 l-24 -13 17 26 c16 25 16
25 -8 22 -13 -1 -22 1 -20 5 3 4 -2 13 -9 19 -8 7 -13 23 -11 37 1 13 -2 27
-7 30 -4 3 -5 10 -2 16 4 7 2 8 -5 4 -9 -6 -9 -11 -1 -21 8 -9 8 -15 0 -20 -6
-4 -9 -1 -8 7 2 7 -4 12 -12 10 -12 -3 -13 -1 -2 9 16 17 16 32 -1 23 -8 -5
-8 -2 2 9 8 10 9 17 3 17 -6 0 -14 9 -17 20 -3 11 -13 20 -21 20 -8 0 -13 3
-13 8 5 27 -3 72 -12 72 -5 0 -7 -4 -4 -10 4 -6 -1 -7 -11 -3 -14 5 -13 8 7
20 13 8 16 12 6 9 -9 -3 -17 -1 -17 5 0 6 -4 7 -10 4 -6 -4 -6 3 0 21 7 18 7
30 0 39 -5 6 -8 14 -5 17 3 3 -3 11 -12 19 -17 13 -17 13 -3 -6 15 -19 15 -19
-12 0 -14 11 -22 22 -17 23 5 2 9 16 9 32 0 19 -6 29 -20 33 -11 3 -20 11 -19
19 0 10 2 10 6 1 2 -7 11 -13 19 -13 10 0 7 8 -11 25 -25 26 -33 41 -15 30 6
-3 10 -1 10 4 0 6 -8 11 -17 11 -15 0 -14 2 3 14 17 13 17 15 2 21 -9 4 -19
14 -22 22 -6 14 -4 14 11 2 16 -13 16 -12 -1 15 -10 16 -13 25 -6 21 9 -5 9
-3 2 11 -5 11 -8 29 -7 41 1 12 -1 22 -4 21 -19 -2 -28 4 -28 17 0 8 3 15 7
15 4 0 7 7 7 15 0 8 -4 12 -9 9 -13 -8 -10 10 5 25 10 11 9 13 -6 8 -10 -4
-16 -3 -13 1 16 26 5 127 -15 146 -9 8 -9 6 -1 -10 8 -15 8 -21 -1 -21 -7 0
-12 16 -12 38 -1 21 3 35 7 33 5 -3 6 -10 3 -15 -4 -5 -4 -9 -1 -9 14 0 14 20
0 34 -11 12 -12 16 -2 16 10 0 10 2 -1 9 -12 8 -12 12 -2 25 11 14 11 16 -5
16 -14 0 -16 2 -6 9 8 4 13 11 12 14 -1 4 -5 20 -10 37 -6 19 -5 32 2 36 7 5
8 2 3 -6 -6 -9 -4 -11 4 -6 9 6 8 13 -6 29 -10 11 -13 17 -7 14 13 -8 28 20
15 28 -13 8 -19 55 -8 62 6 4 7 1 2 -7 -5 -8 -4 -11 3 -6 14 9 3 38 -12 30 -6
-3 -2 2 8 10 11 9 15 16 10 16 -16 0 -13 33 5 55 13 16 13 18 1 8 -13 -10 -16
-8 -17 7 -1 14 3 17 15 13 15 -6 16 -5 2 12 -8 10 -10 16 -3 12 6 -4 15 -2 19
4 4 7 3 9 -4 5 -6 -3 -13 -2 -16 3 -4 5 -2 12 4 16 6 4 7 11 3 18 -4 6 -7 21
-8 33 0 17 3 20 11 13 9 -8 11 -5 7 10 -3 12 -10 18 -16 14 -6 -3 -7 -1 -3 6
4 6 11 9 16 6 4 -3 10 4 13 15 3 11 2 18 -2 15 -4 -2 -8 2 -8 9 0 9 7 12 16 8
14 -5 14 -3 3 10 -11 13 -11 21 -2 39 7 12 8 19 3 16 -5 -3 -10 4 -10 16 -2
17 0 19 7 7 8 -12 10 -10 10 8 0 12 3 22 8 22 4 0 8 13 8 30 1 19 -2 28 -10
24 -6 -3 0 4 14 15 21 17 22 23 11 30 -12 8 -12 12 -2 25 10 12 10 16 2 16 -7
0 -9 5 -6 10 4 6 11 7 17 4 6 -4 8 -2 4 4 -3 6 -2 13 3 17 6 3 8 12 5 20 -4 8
-11 12 -17 8 -6 -3 -7 -1 -3 6 5 8 12 9 20 2 8 -7 17 -6 26 1 12 8 12 9 -2 4
-10 -3 -18 -1 -18 4 0 6 6 10 13 10 8 0 7 4 -3 10 -10 6 -11 10 -2 10 6 0 12
7 12 16 0 9 5 12 12 8 7 -4 8 -3 4 5 -4 6 -12 9 -17 6 -14 -9 -11 5 5 21 17
17 30 19 20 2 -4 -7 -3 -8 5 -4 6 4 9 11 6 16 -3 5 -1 19 5 30 9 16 8 18 -5
14 -8 -4 -15 -1 -15 5 0 6 9 11 20 11 11 0 20 5 20 11 0 5 -4 7 -10 4 -5 -3
-10 -2 -10 4 0 5 5 13 10 16 6 3 10 11 10 16 0 6 -5 7 -12 3 -7 -4 -8 -3 -4 5
6 9 11 9 22 0 12 -10 13 -9 8 6 -4 10 -1 20 6 25 8 5 15 19 17 32 2 18 1 20
-7 8 -7 -11 -10 -12 -10 -2 0 8 9 16 21 19 16 5 18 8 7 15 -9 7 -6 8 10 5 22
-5 23 -4 9 11 -13 14 -13 20 -3 34 10 14 15 15 25 5 10 -9 11 -8 5 7 -5 14 -4
17 5 11 10 -6 11 -3 2 14 -10 17 -9 20 4 15 8 -4 15 -1 15 5 0 6 -6 11 -12 12
-10 0 -10 2 0 6 6 2 10 8 7 13 -3 4 3 14 12 21 14 12 16 12 8 0 -6 -10 -4 -12
4 -7 7 5 10 14 8 20 -3 7 6 26 20 42 13 16 22 23 18 17 -3 -7 -1 -13 4 -13 15
0 14 13 -1 29 -11 11 -8 12 12 6 25 -7 25 -7 5 10 -15 13 -16 15 -3 11 9 -2
19 2 22 10 3 9 11 12 16 9 6 -4 10 -3 9 2 -1 4 0 11 1 16 4 12 7 26 9 38 0 5
6 7 13 3 8 -5 9 -2 5 9 -4 11 -1 17 7 17 9 0 12 8 9 23 -3 12 -1 18 4 12 4 -5
14 -11 22 -13 12 -3 12 0 2 12 -8 10 -9 16 -1 21 6 4 8 16 5 28 -5 16 -4 18 3
8 8 -11 12 -10 23 7 7 11 19 18 26 15 9 -3 11 0 7 10 -3 8 0 18 7 23 7 4 10 3
5 -4 -3 -6 -2 -13 2 -16 5 -3 9 7 8 22 -1 20 3 26 16 24 9 -1 20 3 24 9 5 8 3
9 -7 4 -11 -7 -12 -6 -2 7 7 8 10 18 6 22 -4 4 1 4 11 0 15 -6 17 -4 11 7 -7
11 -5 11 10 -1 11 -9 16 -10 11 -2 -4 7 -2 12 5 12 7 0 9 8 6 21 -5 17 -3 18
11 7 13 -11 15 -11 9 5 -6 15 -4 16 16 6 20 -11 21 -11 9 4 -11 13 -10 17 6
26 11 6 23 7 28 3 5 -4 3 0 -4 10 -10 12 -10 18 -1 24 8 4 9 3 5 -4 -4 -7 -1
-12 8 -12 8 0 18 5 22 12 4 6 3 8 -3 5 -5 -3 -10 0 -10 7 0 8 6 12 12 9 7 -2
15 3 19 12 3 9 10 14 15 11 5 -3 15 2 22 12 13 15 12 16 -3 3 -10 -7 -18 -9
-18 -3 0 16 26 22 40 9 8 -7 10 -8 7 -1 -9 16 21 54 37 48 18 -7 30 12 15 22
-8 5 -9 3 -4 -7 5 -8 5 -11 1 -7 -18 15 3 28 50 31 14 1 20 6 17 15 -5 11 -7
11 -14 0 -5 -8 -9 -9 -9 -2 0 7 11 19 24 27 18 12 26 13 36 4 10 -9 11 -9 6 1
-4 6 -3 12 3 12 5 0 12 -6 15 -12 3 -7 3 -1 1 15 -3 19 1 27 11 27 9 0 12 -5
8 -12 -5 -7 -3 -8 5 -4 7 5 10 15 6 23 -5 14 -3 14 12 2 11 -9 14 -10 9 -1 -4
6 -3 12 3 12 6 0 8 8 4 18 -5 15 -4 15 9 -1 13 -17 15 -18 28 -2 11 13 15 13
22 3 7 -9 8 -6 5 9 -3 12 1 27 9 34 8 6 14 8 14 4 0 -4 6 -2 14 4 11 9 16 9
22 0 5 -8 3 -9 -6 -4 -9 6 -11 4 -5 -5 6 -10 11 -10 20 3 7 9 15 14 18 10 4
-3 7 -1 7 5 0 7 -6 12 -12 12 -9 0 -8 4 2 10 20 13 33 13 24 -1 -3 -6 5 -4 18
5 14 9 29 13 33 9 5 -5 3 1 -5 11 -14 18 -14 19 5 8 17 -8 26 -6 45 10 14 11
19 16 11 12 -8 -4 -12 -3 -8 2 3 5 21 9 41 8 20 -1 33 2 30 7 -3 5 -2 14 2 21
5 8 10 6 15 -8 7 -17 8 -17 8 -1 1 13 8 16 33 15 21 -2 33 2 35 12 4 13 3 13
-6 0 -9 -13 -11 -13 -11 3 0 20 11 22 29 5 11 -11 12 -10 6 1 -6 11 -3 13 13
9 12 -4 25 -1 29 4 3 7 1 8 -5 4 -7 -4 -12 -2 -12 3 0 12 13 14 24 4 11 -11
37 -12 30 -1 -5 7 2 9 20 6 23 -5 24 -3 14 10 -11 13 -10 15 10 9 17 -4 22 -2
18 8 -5 14 18 15 31 0 4 -4 2 -5 -6 0 -10 5 -12 4 -7 -4 9 -14 29 -3 23 13 -6
15 26 14 45 -1 10 -8 18 -8 31 1 9 7 17 17 17 21 0 5 -9 0 -20 -10 -11 -10
-20 -13 -20 -7 0 7 5 12 11 12 5 0 7 5 3 12 -4 7 -3 8 4 4 7 -4 12 -1 13 6 0
10 2 10 6 1 3 -9 10 -10 23 -3 13 7 21 7 26 -2 5 -7 3 -8 -6 -3 -8 5 -11 4 -6
-3 7 -12 36 -5 36 9 0 5 7 9 16 9 8 0 13 -4 10 -8 -3 -5 1 -9 8 -9 9 0 12 7 8
16 -4 13 -3 14 9 5 12 -9 30 -10 68 -5 5 0 13 10 16 22 5 15 10 17 20 9 9 -8
15 -8 20 0 8 13 25 13 25 -1 0 -5 -4 -7 -10 -4 -6 3 -7 -1 -3 -10 4 -12 8 -13
13 -5 5 8 13 9 21 4 11 -6 12 -5 2 7 -10 13 -10 16 2 16 8 0 15 -5 16 -11 0
-6 4 -2 9 9 7 17 9 17 9 3 1 -10 6 -18 12 -18 5 0 8 4 5 8 -3 5 1 9 9 9 8 0
11 -5 8 -11 -4 -6 2 -3 13 6 16 14 23 15 33 5 11 -9 14 -9 18 1 4 10 8 10 20
1 11 -10 16 -10 23 0 5 9 10 10 14 2 11 -18 26 -13 20 7 -4 12 -3 14 4 4 5 -7
21 -15 36 -16z m-370 -24 c3 -5 -1 -9 -9 -9 -8 0 -15 4 -15 9 0 4 4 8 9 8 6 0
12 -4 15 -8z m-732 -64 c-7 -7 -12 -8 -12 -2 0 14 12 26 19 19 2 -3 -1 -11 -7
-17z m81 -133 c-3 -9 -8 -14 -10 -11 -3 3 -2 9 2 15 9 16 15 13 8 -4z m2164
-59 c0 -8 -6 -12 -15 -9 -11 5 -11 7 0 14 7 5 13 9 14 9 0 0 1 -6 1 -14z
m-2386 -69 c-10 -9 -11 -8 -5 6 3 10 9 15 12 12 3 -3 0 -11 -7 -18z m-444
-118 c-9 -6 -15 -14 -12 -20 4 -5 1 -9 -4 -9 -6 0 -11 4 -11 8 0 12 22 32 35
32 5 0 2 -5 -8 -11z m-257 -275 c0 -8 -19 -13 -24 -6 -3 5 1 9 9 9 8 0 15 -2
15 -3z m3865 -212 c-3 -3 0 -11 6 -19 17 -20 5 -16 -14 5 -15 16 -15 19 -2 19
8 0 13 -3 10 -5z m-3871 -51 c3 -4 -4 -17 -17 -27 -22 -19 -22 -19 -4 2 9 11
14 24 10 27 -3 4 -4 7 0 7 3 0 8 -4 11 -9z m3940 -50 c-2 -3 -12 3 -22 13 -16
17 -16 18 5 5 12 -7 20 -15 17 -18z m290 -149 c3 -5 -1 -9 -9 -9 -8 0 -12 4
-9 9 3 4 7 8 9 8 2 0 6 -4 9 -8z m-4674 -320 c0 -13 -12 -22 -22 -16 -10 6 -1
24 13 24 5 0 9 -4 9 -8z m-50 -112 c0 -5 -5 -10 -11 -10 -5 0 -7 5 -4 10 3 6
8 10 11 10 2 0 4 -4 4 -10z m10 -26 c0 -8 -19 -13 -24 -6 -3 5 1 9 9 9 8 0 15
-2 15 -3z m145 -34 c-3 -5 -12 -10 -18 -10 -7 0 -6 4 3 10 19 12 23 12 15 0z
m4795 -126 c0 -2 -9 0 -20 6 -11 6 -20 13 -20 16 0 2 9 0 20 -6 11 -6 20 -13
20 -16z m-4837 -39 c-6 -17 -23 -20 -23 -5 0 6 5 10 11 10 5 0 7 5 3 12 -4 7
-3 8 4 4 6 -4 9 -13 5 -21z m4705 -130 c6 -14 10 -25 8 -25 -2 0 -11 11 -20
25 -9 14 -13 25 -8 25 5 0 14 -11 20 -25z m169 -5 c-1 -11 -5 -20 -9 -20 -10
0 -10 4 -2 24 8 22 13 20 11 -4z m-4 -45 c-3 -9 -8 -14 -10 -11 -3 3 -2 9 2
15 9 16 15 13 8 -4z m-5069 -12 c-16 -12 -12 -18 9 -14 5 1 6 -3 2 -9 -3 -6
-11 -7 -17 -4 -7 4 -8 -2 -3 -17 4 -13 4 -21 -1 -16 -4 4 -8 23 -9 41 -2 28 1
34 17 33 18 -1 18 -2 2 -14z m161 -653 c-3 -5 -1 -10 5 -10 6 0 8 -5 4 -11 -4
-8 -9 -7 -15 2 -12 19 -11 29 2 29 5 0 7 -4 4 -10z m4910 0 c-3 -5 -12 -10
-18 -10 -7 0 -6 4 3 10 19 12 23 12 15 0z m-4870 -220 c3 -18 2 -20 -10 -10
-8 6 -11 18 -8 26 7 18 12 13 18 -16z m-130 -140 c3 -5 1 -10 -4 -10 -6 0 -11
5 -11 10 0 6 2 10 4 10 3 0 8 -4 11 -10z m4925 -54 c0 -2 -7 -9 -15 -16 -13
-11 -14 -10 -9 4 5 14 24 23 24 12z m-225 -115 c-3 -6 -11 -11 -17 -11 -6 0
-6 6 2 15 14 17 26 13 15 -4z m-4464 -44 c-10 -9 -11 -8 -5 6 3 10 9 15 12 12
3 -3 0 -11 -7 -18z m-81 -181 c0 -2 -7 -7 -16 -10 -8 -3 -12 -2 -9 4 6 10 25
14 25 6z m4625 -15 c3 -5 0 -13 -6 -17 -7 -4 -9 -3 -5 4 3 5 0 13 -6 15 -9 4
-10 6 -1 6 6 1 14 -3 18 -8z m-208 -73 c-3 -8 -6 -5 -6 6 -1 11 2 17 5 13 3
-3 4 -12 1 -19z m-4063 -209 c-3 -5 -11 -9 -17 -8 -8 0 -8 2 1 6 10 4 9 10 -5
27 l-18 21 22 -19 c13 -10 20 -23 17 -27z m4088 -26 c-6 -2 -9 -10 -6 -15 4
-7 2 -8 -5 -4 -13 9 -5 26 12 25 9 0 8 -2 -1 -6z m-4032 -38 c0 -12 -19 -12
-23 0 -4 9 -1 12 9 8 7 -3 14 -7 14 -8z m219 -259 c9 -11 9 -16 0 -22 -8 -4
-9 -3 -5 4 4 7 2 12 -3 12 -6 0 -11 5 -11 10 0 14 5 13 19 -4z m3541 -60 c0
-3 -4 -8 -10 -11 -5 -3 -10 -1 -10 4 0 6 5 11 10 11 6 0 10 -2 10 -4z m-3465
-26 c3 -6 -1 -7 -9 -4 -18 7 -21 14 -7 14 6 0 13 -4 16 -10z m2845 -266 c0 -8
-19 -13 -24 -6 -3 5 1 9 9 9 8 0 15 -2 15 -3z m-80 -34 c0 -5 -5 -10 -11 -10
-5 0 -7 5 -4 10 3 6 8 10 11 10 2 0 4 -4 4 -10z m-93 -61 c-9 -6 -14 -15 -11
-21 5 -7 2 -8 -5 -4 -9 6 -8 13 5 27 9 11 20 17 23 13 3 -3 -2 -10 -12 -15z
m-1932 -99 c3 -6 -1 -7 -9 -4 -18 7 -21 14 -7 14 6 0 13 -4 16 -10z m1745 6
c0 -3 -4 -8 -10 -11 -5 -3 -10 -1 -10 4 0 6 5 11 10 11 6 0 10 -2 10 -4z
m-1605 -35 c3 -5 1 -12 -5 -16 -5 -3 -10 1 -10 9 0 18 6 21 15 7z m1455 -1 c0
-5 -5 -10 -11 -10 -5 0 -7 5 -4 10 3 6 8 10 11 10 2 0 4 -4 4 -10z m-125 -40
c3 -6 -1 -7 -9 -4 -18 7 -21 14 -7 14 6 0 13 -4 16 -10z m487 -4 c7 4 8 2 4
-5 -9 -13 -26 -5 -25 12 0 9 2 8 6 -1 2 -6 10 -9 15 -6z m-546 -18 c4 -7 3 -8
-4 -4 -7 4 -12 2 -12 -5 0 -7 -3 -10 -6 -6 -6 5 3 27 11 27 2 0 7 -5 11 -12z
m374 -42 c0 -3 -4 -8 -10 -11 -5 -3 -10 -1 -10 4 0 6 5 11 10 11 6 0 10 -2 10
-4z m-915 -18 c5 4 5 1 1 -6 -6 -10 -11 -10 -22 -1 -8 6 -14 14 -14 16 0 3 6
0 13 -6 8 -6 18 -7 22 -3z m-288 -164 c-9 -9 -28 6 -21 18 4 6 10 6 17 -1 6
-6 8 -13 4 -17z"/>
<path d="M2230 4961 c0 -6 4 -12 8 -15 5 -3 9 1 9 9 0 8 -4 15 -9 15 -4 0 -8
-4 -8 -9z"/>
<path d="M2870 4950 c0 -6 7 -10 15 -10 8 0 15 2 15 4 0 2 -7 6 -15 10 -8 3
-15 1 -15 -4z"/>
<path d="M3074 4926 c1 -8 5 -18 8 -22 4 -3 5 1 4 10 -1 8 -5 18 -8 22 -4 3
-5 -1 -4 -10z"/>
<path d="M2498 4810 c18 -20 15 -29 -8 -23 -11 3 -17 9 -14 14 3 5 -10 2 -30
-7 -20 -10 -32 -22 -29 -28 4 -6 -1 -5 -11 3 -13 11 -14 16 -4 23 10 7 10 9
-2 5 -8 -2 -14 -13 -12 -23 2 -18 2 -18 -13 0 -8 11 -15 15 -15 9 0 -6 -7 -14
-16 -17 -14 -5 -15 -4 -4 9 8 9 8 15 2 15 -6 0 -14 -5 -17 -11 -4 -6 -13 -8
-21 -5 -8 3 -14 0 -14 -6 0 -7 -4 -7 -14 1 -11 10 -15 8 -19 -6 -4 -16 -5 -16
-6 -1 -1 10 -9 16 -20 15 -11 0 -17 -5 -15 -9 3 -5 10 -5 16 -2 7 4 8 2 4 -5
-4 -6 -12 -9 -17 -5 -20 12 -69 15 -69 4 0 -6 5 -8 10 -5 6 3 10 1 10 -4 0 -6
-4 -12 -10 -12 -13 -2 -29 -6 -32 -9 -9 -7 -50 -5 -54 2 -3 5 -13 1 -21 -9
-13 -17 -14 -17 -9 0 3 9 1 17 -4 17 -6 0 -10 -4 -10 -9 0 -10 -19 -9 -36 1
-6 4 -11 1 -11 -7 0 -8 4 -12 8 -9 4 2 11 -1 15 -7 4 -8 3 -9 -4 -5 -7 4 -12
2 -12 -5 0 -6 -8 -2 -17 10 -14 16 -21 18 -33 10 -13 -9 -12 -10 2 -5 10 3 20
1 23 -3 7 -12 -24 -23 -38 -14 -7 4 -8 0 -3 -12 5 -14 4 -16 -7 -6 -15 12 -52
10 -64 -4 -5 -4 -2 -5 6 0 10 6 12 4 6 -4 -5 -9 -11 -9 -17 -3 -12 12 -38 5
-38 -10 0 -6 8 -4 18 3 15 13 16 12 3 -3 -7 -10 -17 -15 -22 -12 -5 3 -9 0 -9
-7 0 -7 -6 -5 -13 6 -11 14 -16 15 -22 5 -6 -9 -4 -11 6 -5 11 6 12 5 2 -5 -9
-10 -15 -10 -26 -2 -19 16 -30 3 -14 -16 8 -11 8 -14 0 -9 -6 4 -19 0 -27 -9
-9 -8 -16 -12 -16 -7 0 5 5 14 12 21 7 7 9 12 4 12 -10 0 -32 -22 -33 -33 -1
-5 -5 -12 -9 -15 -4 -4 -4 -2 0 5 3 6 2 14 -3 17 -5 3 -11 -2 -13 -12 -4 -15
-18 -20 -66 -24 -7 -1 -10 -8 -7 -17 3 -8 3 -12 -1 -8 -4 4 -14 1 -23 -6 -14
-10 -14 -10 -4 4 10 13 10 16 -2 16 -7 0 -14 -3 -13 -6 2 -24 -5 -37 -19 -38
-29 -2 -75 -12 -80 -16 -2 -3 3 -7 12 -11 9 -3 14 -2 11 2 -3 5 1 9 8 9 8 0
12 -6 9 -13 -3 -8 -17 -12 -34 -10 -17 2 -26 -1 -22 -7 4 -6 -4 -8 -20 -3 -14
3 -29 2 -32 -4 -3 -5 0 -7 9 -4 10 4 14 0 13 -15 -1 -12 -5 -17 -10 -12 -11
11 -37 3 -37 -11 0 -6 8 -4 18 3 15 13 16 12 3 -4 -10 -13 -17 -15 -27 -6 -11
9 -14 8 -14 0 0 -7 -4 -9 -10 -6 -5 3 -11 1 -11 -4 -1 -6 -3 -15 -4 -21 -1 -5
-3 -13 -4 -17 0 -3 -10 2 -22 12 -20 19 -20 19 -10 -7 8 -22 8 -26 -5 -21 -8
3 -20 1 -27 -5 -6 -6 -16 -12 -22 -14 -5 -1 -9 -6 -8 -10 2 -5 -4 -8 -12 -8
-9 0 -12 -6 -9 -15 5 -11 2 -13 -10 -9 -19 7 -22 -12 -3 -20 6 -3 1 -3 -12 0
-16 4 -21 3 -17 -5 7 -10 -6 -16 -28 -12 -5 1 -6 -6 -2 -15 6 -15 4 -15 -11
-3 -9 8 -14 9 -10 3 3 -6 -1 -20 -9 -30 -9 -10 -13 -14 -10 -7 4 6 2 14 -3 17
-5 3 -8 -7 -7 -23 1 -17 -2 -27 -7 -24 -4 3 -15 -3 -23 -13 -9 -11 -13 -14
-10 -8 3 6 0 11 -7 11 -7 0 -13 -8 -13 -18 0 -10 6 -15 16 -12 13 4 13 4 0 -6
-8 -6 -25 -11 -37 -11 -13 0 -22 -3 -22 -7 1 -5 1 -17 -1 -28 l-1 -20 -9 20
c-8 18 -9 18 -9 2 -1 -10 -5 -16 -9 -13 -5 3 -9 -1 -9 -9 0 -8 5 -12 11 -9 6
3 2 -1 -8 -10 -10 -8 -22 -13 -27 -11 -4 3 -11 0 -15 -6 -4 -7 -3 -9 3 -6 7 4
10 -3 9 -17 0 -13 -3 -22 -5 -20 -7 6 -31 -17 -26 -25 2 -4 -6 -7 -18 -7 -12
1 -22 -5 -23 -11 -1 -7 -2 -20 -3 -28 0 -8 -6 -15 -12 -15 -5 0 -7 6 -3 13 4
7 3 9 -2 4 -5 -5 -9 -14 -9 -20 -1 -7 -7 -11 -15 -9 -10 2 -11 0 -2 -10 7 -10
8 -18 0 -28 -8 -12 -9 -12 -4 3 4 11 2 16 -5 11 -6 -3 -8 -15 -6 -26 5 -16 3
-17 -10 -6 -15 12 -15 10 -3 -12 12 -22 12 -24 -2 -12 -13 10 -18 10 -24 1 -4
-7 -3 -9 3 -6 6 4 13 0 16 -8 4 -10 1 -12 -10 -8 -12 5 -15 2 -11 -14 3 -12 0
-20 -8 -20 -7 0 -10 5 -7 10 3 6 1 7 -6 3 -9 -6 -9 -11 0 -22 6 -8 9 -17 5
-21 -3 -3 -6 -1 -6 5 0 6 -6 9 -14 6 -9 -3 -12 -12 -9 -21 5 -12 3 -14 -8 -8
-12 7 -12 6 -1 -7 9 -11 10 -18 2 -23 -6 -3 -8 -10 -5 -15 3 -4 -3 -14 -13
-21 -15 -12 -16 -12 -4 2 10 14 10 18 -3 22 -8 4 -14 3 -14 -1 3 -21 -2 -32
-13 -27 -7 4 -4 0 6 -9 19 -15 19 -16 -4 -24 -19 -7 -21 -10 -7 -15 10 -4 17
-12 17 -19 0 -9 -3 -8 -10 2 -6 10 -10 11 -10 3 0 -7 -5 -13 -11 -13 -5 0 -7
5 -4 10 3 6 1 10 -4 10 -14 0 -14 -13 0 -27 8 -8 7 -13 -2 -18 -8 -5 -10 -4
-5 3 11 18 0 14 -15 -5 -8 -9 -9 -14 -3 -10 7 4 15 0 18 -9 4 -11 2 -15 -7
-11 -8 3 -14 -1 -14 -9 0 -7 5 -10 10 -7 6 4 7 1 3 -6 -5 -7 -14 -10 -21 -7
-17 6 -13 -23 6 -35 10 -8 9 -9 -8 -4 -12 3 -25 1 -29 -6 -4 -8 -3 -9 4 -5 7
4 12 3 12 -3 0 -5 -6 -12 -12 -14 -10 -4 -10 -6 0 -6 6 -1 12 -6 12 -12 0 -6
-6 -9 -14 -6 -10 4 -12 0 -9 -14 3 -10 10 -16 16 -12 6 3 7 1 3 -6 -4 -6 -12
-8 -18 -5 -8 5 -9 1 -5 -10 6 -14 3 -16 -16 -12 -12 3 -16 3 -9 0 10 -5 10 -9
0 -22 -10 -12 -10 -14 -1 -8 7 4 13 2 13 -3 0 -6 -5 -11 -11 -11 -8 0 -7 -6 2
-17 10 -11 10 -14 2 -9 -7 4 -13 3 -13 -1 0 -5 6 -15 13 -22 10 -11 8 -11 -10
-2 -24 12 -26 10 -23 -27 1 -13 -4 -30 -12 -39 -11 -14 -11 -16 2 -8 13 8 13
6 2 -8 -8 -9 -10 -22 -6 -29 13 -20 11 -45 -2 -45 -9 0 -10 5 -3 18 8 15 6 17
-6 13 -9 -4 -13 -9 -11 -12 3 -3 0 -12 -7 -20 -9 -13 -9 -14 0 -8 8 4 13 1 13
-9 0 -9 -4 -13 -10 -10 -6 4 -7 -1 -3 -11 5 -13 3 -15 -8 -9 -12 8 -12 6 0 -9
13 -15 13 -19 0 -27 -12 -7 -12 -9 1 -9 10 0 11 -3 4 -8 -14 -9 -14 -43 0 -36
6 3 3 -1 -6 -9 -10 -8 -15 -17 -11 -20 3 -4 7 -22 8 -42 1 -23 -2 -31 -10 -25
-7 6 -11 3 -11 -10 0 -10 4 -16 8 -14 12 8 9 -11 -4 -24 -16 -16 4 -16 22 1
12 10 12 9 2 -4 -6 -9 -8 -20 -4 -24 4 -5 0 -6 -10 -2 -11 4 -15 1 -13 -11 1
-9 -5 -24 -14 -32 -9 -8 -14 -14 -12 -13 2 2 10 -2 18 -9 11 -8 12 -7 8 5 -4
8 -1 18 4 22 6 3 8 11 5 17 -4 7 -2 8 4 4 8 -5 9 -13 2 -25 -5 -10 -6 -21 -3
-25 4 -4 -3 -9 -15 -13 -21 -5 -21 -6 -5 -18 10 -7 22 -11 27 -8 5 4 5 0 0 -8
-12 -19 -12 -82 1 -92 6 -5 3 -7 -7 -3 -13 4 -18 0 -18 -12 0 -10 -6 -24 -12
-31 -10 -11 -10 -13 -1 -7 7 4 13 2 13 -5 0 -8 5 -8 17 2 17 13 17 13 0 -7
-20 -24 -23 -41 -4 -25 11 8 13 6 12 -9 -1 -11 -5 -23 -10 -27 -4 -5 -5 -2 0
6 5 9 4 12 -3 7 -9 -5 -8 -16 3 -42 10 -25 11 -34 2 -34 -7 0 -6 -4 3 -10 9
-6 11 -10 3 -10 -7 0 -10 -7 -7 -15 4 -8 11 -12 16 -9 6 4 2 -6 -8 -22 -16
-23 -16 -27 -4 -22 11 4 16 0 17 -13 1 -11 -2 -17 -7 -14 -5 3 -12 0 -16 -6
-4 -8 -3 -9 5 -5 6 4 14 0 17 -8 3 -9 11 -13 17 -9 6 3 7 1 3 -5 -4 -6 -14 -9
-24 -6 -14 5 -15 4 -2 -5 12 -9 13 -14 2 -31 -7 -11 -8 -20 -3 -20 5 0 11 6
14 13 2 6 8 9 12 5 4 -3 2 -15 -3 -24 -8 -14 -5 -25 10 -46 10 -15 15 -28 10
-28 -6 0 -9 -11 -8 -24 0 -13 4 -22 7 -20 4 2 10 -3 13 -12 4 -10 2 -13 -6 -8
-7 4 -8 3 -4 -4 4 -7 17 -12 29 -13 21 0 21 -1 2 -9 -11 -5 -15 -9 -8 -9 6 -1
9 -10 6 -21 -3 -12 0 -20 7 -20 9 0 9 -4 -1 -17 -12 -15 -12 -16 3 -10 12 4
15 2 11 -9 -3 -7 -10 -14 -17 -14 -6 0 -3 -5 7 -11 9 -6 15 -15 11 -20 -3 -5
-2 -9 3 -8 4 1 15 1 23 -1 11 -1 9 -4 -5 -10 -17 -7 -17 -9 -2 -9 9 -1 17 -6
17 -12 0 -5 -4 -7 -10 -4 -5 3 -10 1 -10 -4 0 -6 5 -11 11 -11 5 0 7 -6 3 -12
-6 -10 -4 -10 8 0 13 10 18 10 24 1 4 -7 3 -9 -3 -6 -6 4 -15 -5 -21 -18 -9
-19 -8 -23 2 -19 7 3 19 -3 27 -12 9 -12 10 -15 1 -10 -20 12 -14 -4 11 -26
17 -16 18 -18 4 -14 -13 4 -16 2 -10 -7 4 -6 8 -15 9 -19 1 -5 2 -10 3 -13 0
-3 11 0 24 6 12 6 19 8 15 4 -4 -4 -3 -17 3 -28 7 -12 7 -17 1 -13 -5 3 -12
-1 -15 -8 -4 -10 0 -13 14 -11 16 3 18 1 10 -9 -11 -14 -5 -26 13 -26 6 0 4 5
-4 11 -13 9 -13 10 0 6 10 -2 14 -14 12 -36 -3 -22 0 -31 7 -27 15 10 14 -7
-1 -23 -7 -7 -8 -11 -3 -9 6 1 20 -4 33 -13 23 -16 26 -38 7 -51 -5 -4 5 -6
23 -4 18 2 31 1 28 -2 -3 -2 -1 -14 5 -26 10 -21 10 -21 -7 -1 -10 12 -15 14
-12 5 3 -8 14 -20 26 -26 12 -6 19 -14 15 -17 -3 -4 -1 -7 6 -7 8 0 11 -8 9
-18 -4 -15 0 -18 18 -16 13 1 22 -2 18 -7 -3 -5 -10 -7 -15 -4 -5 3 -6 -1 -3
-10 5 -12 9 -13 20 -4 11 9 13 9 9 -2 -3 -8 6 -21 22 -31 16 -10 23 -18 16
-18 -6 0 -15 5 -18 10 -3 6 -11 10 -18 10 -6 0 0 -8 13 -17 14 -10 28 -17 33
-15 12 4 8 -16 -5 -22 -7 -4 -3 -4 9 -2 13 2 24 -2 27 -11 4 -9 2 -11 -6 -7
-7 5 -8 3 -2 -7 5 -8 9 -17 9 -21 0 -9 12 -12 23 -5 4 2 0 2 -8 0 -11 -3 -12
-1 -3 8 18 18 34 2 23 -26 -7 -19 -6 -23 5 -18 8 3 18 -2 21 -11 3 -9 10 -16
16 -16 5 0 6 5 2 12 -4 7 -3 8 5 4 9 -6 9 -11 1 -21 -8 -9 -6 -14 5 -19 9 -3
13 -11 10 -16 -4 -6 -1 -9 6 -8 7 2 13 -3 14 -9 0 -16 11 -21 22 -9 5 5 2 6
-6 1 -10 -5 -12 -4 -7 3 5 9 13 9 27 2 17 -9 19 -30 3 -30 -3 0 -2 5 2 12 5 7
3 8 -5 4 -7 -5 -9 -11 -6 -15 6 -6 10 -7 36 -10 5 0 7 -7 3 -13 -5 -8 -2 -8
10 1 15 12 17 12 14 0 -2 -8 3 -13 12 -11 12 3 13 1 2 -9 -15 -16 -16 -29 -1
-29 5 0 7 5 4 10 -3 6 1 10 10 10 9 0 13 -4 10 -10 -3 -5 -1 -10 5 -10 6 0 10
-6 8 -13 -2 -7 2 -12 7 -12 6 0 9 4 7 10 -2 5 7 -1 20 -15 14 -14 23 -28 21
-32 -6 -12 15 -19 23 -7 5 8 3 9 -6 4 -9 -5 -11 -4 -6 4 4 6 12 9 17 5 5 -3 7
-10 4 -15 -4 -5 1 -9 9 -9 15 0 21 -12 17 -33 -1 -5 2 -6 7 -3 5 3 18 -1 28
-9 23 -17 48 -20 38 -3 -4 7 -3 8 5 4 9 -6 9 -11 0 -22 -7 -9 -8 -14 -3 -13
22 4 35 -2 28 -13 -5 -10 -4 -10 6 -1 11 10 17 10 29 -1 15 -14 21 -16 37 -16
4 0 1 -7 -6 -15 -11 -13 -10 -14 5 -9 11 5 16 4 12 -3 -3 -5 0 -10 8 -10 8 0
11 5 8 10 -3 6 -1 7 5 3 7 -4 12 -2 12 4 0 6 5 8 10 5 7 -4 2 -14 -11 -26
l-22 -19 31 4 c18 2 32 -1 32 -5 0 -5 5 -9 11 -9 7 0 18 -8 25 -17 12 -16 12
-16 7 5 -3 13 -1 22 6 22 7 0 10 -4 7 -9 -4 -5 -3 -16 0 -25 5 -14 9 -14 22
-4 13 11 15 10 9 -4 -3 -10 -2 -18 3 -18 6 0 10 4 10 8 0 4 9 8 19 8 11 0 19
-5 18 -11 -1 -5 3 -9 10 -8 7 2 10 -4 6 -13 -5 -13 -3 -14 13 -6 22 12 54 -5
55 -29 0 -8 4 -5 9 6 8 18 9 18 10 -5 l2 -25 8 25 c7 22 8 22 10 5 1 -11 2
-22 2 -25 0 -3 13 -5 29 -5 20 -1 28 3 25 12 -3 7 -2 12 2 12 21 -3 42 2 42
11 0 5 -3 9 -7 9 -26 -4 -35 3 -16 11 26 11 21 42 -5 33 -10 -3 -13 -1 -7 4
16 13 19 75 3 84 -9 6 -6 9 12 9 l24 0 -22 16 c-16 11 -20 20 -14 27 6 7 10
25 10 41 0 15 6 32 13 37 8 5 9 9 3 9 -5 0 -15 -5 -22 -12 -7 -7 -12 -9 -12
-5 0 3 10 16 23 28 12 12 16 19 9 15 -10 -6 -13 4 -11 42 2 29 -3 57 -10 65
-7 10 -8 17 -2 21 5 4 9 20 9 37 -1 17 5 35 13 40 8 5 9 9 3 9 -5 0 -15 -5
-22 -12 -7 -7 -12 -9 -12 -5 0 3 10 16 23 28 12 12 16 19 10 15 -10 -5 -13 5
-13 39 0 31 -4 44 -11 39 -8 -4 -8 -1 0 14 7 13 17 19 26 16 11 -5 13 -2 9 10
-3 9 -11 13 -17 9 -6 -3 -7 -1 -3 6 6 9 11 9 22 0 13 -10 14 -8 10 15 -4 23
-3 26 10 15 12 -10 13 -9 7 6 -5 15 -3 17 12 12 15 -6 16 -5 6 7 -9 11 -9 16
0 22 8 4 9 3 5 -4 -4 -7 -2 -12 3 -12 6 0 11 8 11 18 0 14 2 15 10 2 8 -13 12
-12 27 4 12 13 13 16 2 8 -12 -9 -16 -9 -16 1 0 7 10 14 21 14 78 5 86 7 86
20 0 8 4 12 8 9 5 -3 9 1 9 9 0 8 -4 12 -8 9 -4 -2 -9 -1 -12 3 -2 5 -2 3 -1
-4 2 -7 -1 -15 -6 -18 -9 -6 -6 42 4 52 3 3 1 12 -5 20 -9 10 -8 13 1 13 8 0
11 3 7 6 -10 11 -28 -7 -20 -20 4 -7 1 -4 -8 6 -9 9 -20 14 -24 10 -5 -4 -5
-1 -1 6 4 7 11 10 16 7 5 -3 12 -1 15 5 4 6 3 10 -2 9 -26 -4 -35 1 -24 15 9
11 9 16 0 22 -8 4 -9 3 -5 -4 11 -18 0 -14 -15 5 -8 10 -9 14 -2 10 8 -5 11 0
10 13 -1 11 -7 20 -15 20 -7 0 -11 -4 -7 -9 3 -5 1 -12 -4 -15 -10 -7 -7 46 4
64 5 9 4 11 -3 6 -11 -6 -17 12 -13 37 1 4 -9 3 -21 -4 -13 -6 -20 -8 -16 -4
4 5 3 14 -3 21 -7 8 -7 14 1 19 13 8 13 25 -1 25 -5 0 -7 -4 -4 -10 3 -5 1
-10 -4 -10 -14 0 -14 12 -1 28 6 6 7 10 4 7 -7 -5 -54 41 -54 53 0 4 7 -2 15
-12 8 -11 15 -15 15 -9 0 7 -7 19 -17 28 -14 14 -14 18 -2 26 15 9 13 10 -30
13 -8 1 -16 8 -18 16 -4 13 -3 13 6 0 9 -12 11 -11 11 8 0 13 -4 20 -10 17 -5
-3 -10 1 -10 9 0 9 -7 16 -16 16 -8 0 -12 5 -9 10 9 14 -4 50 -18 50 -8 0 -8
-3 1 -12 15 -15 15 -28 1 -28 -5 0 -8 4 -4 9 3 5 1 13 -5 16 -8 5 -7 11 1 21
12 15 8 17 -26 15 -11 0 -14 2 -7 5 17 8 15 34 -3 34 -8 0 -15 5 -15 11 0 5 5
7 12 3 7 -5 8 -3 3 5 -4 7 -16 11 -26 8 -11 -3 -19 -1 -19 4 0 5 5 9 11 9 8 0
8 5 -1 15 -7 8 -16 13 -20 10 -5 -3 -6 4 -3 15 3 11 0 20 -6 20 -6 0 -11 5
-11 11 0 5 6 7 13 3 8 -5 7 -2 -2 10 -8 9 -21 14 -29 11 -12 -4 -12 -3 -3 9 9
11 9 16 0 22 -7 4 -9 3 -6 -3 4 -6 0 -13 -8 -16 -11 -5 -12 -1 -5 18 7 19 6
23 -5 18 -18 -6 -20 8 -3 25 9 9 5 11 -19 8 -30 -3 -31 -2 -22 21 6 18 6 22
-3 17 -8 -5 -9 -2 -4 11 5 15 4 16 -9 5 -13 -11 -15 -9 -15 13 0 14 -7 30 -16
35 -15 8 -15 10 0 15 11 5 15 3 10 -5 -5 -7 -3 -8 5 -4 7 5 10 14 7 22 -7 17
10 19 18 2 3 -7 3 -2 0 11 -3 13 -2 21 3 18 5 -3 10 3 10 14 1 12 -3 17 -9 13
-7 -5 -8 -2 -3 5 5 9 11 9 17 3 6 -6 17 -8 25 -5 11 4 10 8 -4 20 -17 14 -17
14 0 9 9 -3 17 -1 17 4 0 6 -4 10 -10 10 -5 0 -7 7 -3 16 3 10 8 12 12 5 4 -6
11 -3 19 9 10 17 9 18 -6 14 -16 -5 -16 -5 1 6 9 6 15 17 11 23 -3 7 2 3 11
-8 l17 -20 -4 20 c-2 12 2 19 9 18 7 -2 10 4 6 13 -5 13 -8 13 -15 2 -8 -10
-9 -10 -5 2 2 9 14 14 27 14 23 -2 24 -1 5 13 -20 15 -19 15 2 10 21 -5 21 -4
6 19 -15 24 -15 24 10 15 21 -8 25 -7 20 4 -3 8 -10 12 -17 8 -6 -4 -5 1 3 11
8 9 21 14 30 11 13 -5 13 -4 4 6 -10 10 -9 15 5 26 9 8 12 12 5 9 -6 -4 -15
-1 -19 5 -4 8 -3 9 4 5 7 -4 12 -2 12 5 0 8 5 7 17 -2 15 -13 15 -12 6 6 -10
17 -7 22 15 32 27 13 27 13 2 7 -24 -5 -24 -4 -6 10 10 9 22 13 27 11 4 -3 5
5 1 17 -4 16 -2 19 8 13 8 -5 11 -4 6 3 -3 6 -2 13 3 16 10 7 9 25 -1 42 -4 6
-1 11 7 11 8 0 12 -4 9 -8 -2 -4 5 -7 15 -6 18 1 18 3 6 17 -10 11 -11 20 -4
33 6 9 7 23 3 30 -5 8 -2 7 9 -2 15 -12 17 -11 18 10 1 13 1 28 0 33 -1 5 6 3
15 -5 16 -13 16 -12 5 8 -10 19 -9 22 4 17 8 -4 15 -1 15 6 0 6 5 8 12 4 7 -5
8 -3 3 6 -4 7 -2 16 6 21 9 6 10 9 2 9 -7 0 -16 -8 -22 -17 -5 -10 -12 -15
-16 -11 -4 3 2 15 13 26 11 11 23 18 26 14 10 -9 7 8 -6 31 -10 20 -10 21 6 8
14 -12 16 -12 10 3 -4 11 -2 16 7 14 9 -2 14 6 13 25 0 17 4 26 11 23 7 -2 12
2 12 10 0 7 -3 11 -7 9 -4 -2 -7 2 -7 10 0 8 4 12 9 9 8 -5 12 9 9 34 -1 6 6
12 15 12 14 0 15 2 3 17 -8 9 -9 14 -3 10 7 -4 17 0 24 8 11 13 10 14 -6 8
-17 -6 -17 -5 -5 10 8 10 14 27 15 40 0 12 6 22 13 22 7 0 18 6 25 13 11 11 9
12 -7 6 -18 -7 -18 -6 -6 9 11 14 11 17 0 18 -8 0 -3 5 11 10 19 8 22 12 10
19 -8 5 -18 6 -22 4 -4 -3 -5 2 -1 11 3 9 9 13 12 8 3 -4 15 -10 26 -11 19 -4
19 -4 -1 15 -11 10 -15 14 -8 10 7 -4 15 -3 19 3 3 5 2 10 -4 10 -6 0 -8 7 -4
16 5 13 7 13 14 2 12 -19 11 0 -1 23 -9 15 -7 19 5 19 15 0 15 1 1 16 -9 8
-15 23 -15 32 1 14 2 14 6 -1 5 -18 5 -18 19 0 11 15 13 15 8 2 -3 -10 -1 -19
3 -22 5 -3 9 19 9 49 -1 30 3 54 7 54 4 0 3 9 -3 21 -11 19 -10 20 12 8 23
-12 23 -12 5 9 -13 14 -15 22 -7 27 8 5 7 11 -2 23 -11 13 -11 14 2 7 22 -14
39 -15 47 -3 3 6 2 8 -3 5 -6 -3 -16 -2 -23 3 -11 6 -9 12 7 26 17 14 19 21
10 32 -15 17 -20 44 -7 37 15 -10 23 46 8 57 -10 6 -7 8 11 6 14 -1 26 2 27 7
1 6 -4 9 -11 7 -7 -1 -13 4 -13 13 0 8 4 12 9 9 4 -3 8 4 8 16 0 14 4 19 13
14 10 -6 10 -4 0 7 -14 14 -18 33 -5 25 4 -2 8 6 8 19 0 13 -3 22 -7 19 -11
-7 -4 22 9 38 9 11 9 17 0 26 -7 7 -8 12 -4 12 5 0 5 6 0 13 -5 7 -2 5 7 -5
15 -15 18 -16 23 -2 4 9 2 12 -5 8 -8 -4 -9 1 -4 17 4 16 3 20 -3 11 -7 -11
-10 -11 -15 2 -4 9 -3 15 1 15 21 -3 32 3 32 17 0 9 5 13 13 9 6 -4 3 1 -7 9
-17 13 -17 16 -4 16 9 0 19 8 21 18 4 16 5 16 6 0 0 -10 5 -18 10 -18 5 0 12
8 14 18 4 16 5 16 6 0 0 -10 6 -18 12 -18 5 0 7 5 3 12 -4 6 -3 8 4 4 6 -3 9
-20 7 -36 -2 -17 -1 -28 4 -26 11 7 8 -38 -4 -46 -6 -5 -5 -8 3 -8 6 0 12 -5
12 -11 0 -5 -3 -8 -7 -6 -5 3 -8 -14 -8 -38 0 -24 3 -41 7 -38 5 2 5 9 2 15
-4 7 -2 8 4 4 15 -9 15 -12 -4 -30 -8 -9 -11 -16 -5 -16 6 0 11 -5 11 -11 0
-5 -6 -7 -12 -3 -9 5 -9 2 1 -9 7 -9 9 -17 4 -17 -11 0 -10 -171 1 -189 4 -6
2 -11 -5 -11 -10 0 -10 -3 -1 -12 14 -14 16 -32 3 -24 -9 6 -7 -46 3 -62 3 -6
0 -13 -6 -15 -10 -4 -10 -6 0 -6 6 -1 12 -6 12 -12 0 -5 -3 -8 -7 -6 -5 3 -8
-14 -8 -38 0 -24 3 -41 7 -38 5 2 5 9 2 15 -4 7 -2 8 4 4 15 -9 15 -12 -4 -30
-8 -9 -11 -16 -5 -16 6 0 11 -5 11 -11 0 -5 -6 -7 -12 -3 -9 5 -9 2 1 -9 7 -9
9 -17 4 -17 -11 0 -10 -171 1 -189 4 -6 2 -11 -5 -11 -10 0 -10 -3 -1 -12 14
-14 16 -32 3 -24 -9 6 -7 -46 3 -62 3 -6 0 -13 -6 -15 -10 -4 -10 -6 0 -6 6
-1 12 -6 12 -12 0 -5 -3 -8 -7 -6 -5 3 -8 -14 -8 -38 0 -24 3 -41 7 -38 5 2 5
9 2 15 -4 7 -2 8 4 4 15 -9 15 -12 -4 -30 -8 -9 -11 -16 -5 -16 6 0 11 -5 11
-11 0 -5 -6 -7 -12 -3 -9 5 -9 2 1 -9 7 -9 9 -17 4 -17 -11 0 -10 -171 1 -189
4 -6 2 -11 -5 -11 -10 0 -10 -3 -1 -12 14 -14 16 -32 3 -24 -9 6 -7 -46 3 -62
3 -6 0 -13 -6 -15 -10 -4 -10 -6 0 -6 6 -1 12 -6 12 -12 0 -5 -3 -8 -7 -6 -5
3 -8 -24 -9 -59 0 -35 4 -64 9 -64 4 0 5 5 1 12 -5 7 -3 8 6 3 10 -6 10 -10
-3 -20 -12 -8 -13 -15 -6 -22 8 -8 5 -14 -9 -22 -15 -8 -22 -8 -25 2 -4 8 -6
6 -6 -4 -1 -9 -11 -21 -23 -28 l-23 -11 23 6 c13 3 22 1 22 -6 0 -6 -4 -9 -9
-5 -5 3 -12 1 -16 -5 -4 -6 -11 -8 -16 -5 -17 11 -30 -5 -19 -25 7 -13 5 -21
-7 -31 -14 -12 -16 -12 -8 0 6 10 4 12 -4 7 -7 -5 -10 -14 -7 -21 2 -7 -1 -18
-7 -25 -9 -10 -9 -11 3 -5 8 4 5 -2 -8 -15 l-23 -22 23 -25 c15 -16 17 -22 6
-18 -9 4 -19 1 -24 -6 -5 -8 -3 -10 6 -4 10 6 12 4 7 -8 -3 -9 -1 -19 5 -23 7
-5 8 -2 3 6 -5 9 -4 11 4 6 6 -4 8 -13 4 -19 -12 -19 -12 -37 -2 -37 6 0 8 -4
4 -9 -3 -6 4 -8 15 -6 11 2 18 0 15 -5 -3 -4 1 -11 7 -14 7 -3 2 -4 -12 -1
-14 3 -19 2 -12 -1 6 -3 10 -10 7 -15 -4 -5 1 -6 9 -3 11 4 16 0 16 -15 0 -16
6 -21 25 -21 14 0 25 -4 25 -10 0 -5 -8 -7 -17 -3 -15 5 -14 3 2 -10 21 -17
40 -22 31 -9 -2 4 4 9 15 9 18 2 19 0 7 -14 -8 -10 -8 -14 -1 -10 6 4 13 2 15
-5 3 -9 32 -13 91 -13 47 -1 84 2 82 6 -3 3 3 15 11 25 9 10 13 13 9 7 -3 -7
-1 -13 4 -13 6 0 11 6 11 13 0 8 3 7 10 -3 8 -12 11 -12 28 3 10 9 22 15 25
12 4 -3 5 -2 2 2 -3 3 0 12 6 19 6 8 9 20 5 29 -3 8 0 14 7 12 7 -1 11 7 10
18 -1 11 0 14 3 8 8 -19 24 -15 17 4 -4 10 -2 14 4 10 7 -4 10 0 8 10 -2 10
-4 18 -5 18 -1 0 -3 10 -4 22 -2 15 2 19 12 16 11 -5 12 -2 4 13 -5 10 -6 28
-2 39 4 11 4 30 -1 43 -6 15 -5 22 4 22 8 0 7 3 -3 9 -8 6 -19 7 -25 5 -5 -3
-1 2 10 12 20 16 20 16 -3 11 -12 -3 -20 -2 -17 3 3 4 -1 10 -9 13 -8 3 -12
16 -11 31 3 23 1 25 -17 15 -15 -8 -19 -8 -14 0 4 6 2 11 -3 11 -6 0 -10 3 -9
8 2 4 -1 8 -6 9 -15 2 -28 32 -20 45 5 8 2 9 -9 5 -10 -3 -17 -2 -17 3 0 6 8
10 18 10 14 0 14 2 3 9 -8 5 -15 19 -16 30 -1 17 1 19 14 9 9 -7 13 -8 9 -4
-4 5 -3 15 4 23 8 11 7 12 -5 8 -22 -9 -30 12 -14 35 8 11 16 19 18 17 2 -1
-4 6 -13 16 -21 21 -23 37 -5 37 7 0 13 11 13 24 0 14 -4 22 -8 20 -5 -3 -6
-9 -3 -14 3 -5 1 -11 -3 -14 -5 -3 -7 11 -5 32 5 46 5 50 0 88 -2 23 1 30 10
27 19 -7 16 7 -4 24 -17 14 -17 14 0 9 10 -3 16 -2 12 3 -3 5 1 12 7 15 7 4 2
4 -12 2 -24 -5 -24 -4 -6 9 11 8 14 15 7 15 -7 0 -9 5 -6 10 3 6 1 10 -6 10
-7 0 -5 9 6 26 9 15 12 23 6 20 -6 -4 -11 -4 -12 1 0 4 -2 18 -3 30 -2 19 0
21 13 11 9 -7 13 -8 9 -4 -4 5 -3 15 4 23 8 11 7 12 -5 8 -22 -9 -30 12 -14
35 8 11 16 19 18 17 2 -1 -4 6 -13 16 -21 21 -23 37 -5 37 7 0 13 11 13 24 0
14 -4 22 -8 20 -5 -3 -6 -9 -3 -14 3 -5 1 -11 -3 -14 -5 -3 -7 11 -5 32 5 46
5 50 0 88 -2 23 1 30 10 27 19 -7 16 7 -4 24 -17 14 -17 14 0 9 10 -3 16 -2
12 3 -3 5 1 12 7 15 7 4 2 4 -12 2 -24 -5 -24 -4 -6 9 11 8 14 15 7 15 -7 0
-9 5 -6 10 3 6 1 10 -6 10 -7 0 -5 9 6 26 9 15 12 23 6 20 -6 -4 -11 -4 -12 1
0 4 -2 18 -3 30 -2 19 0 21 13 11 9 -7 13 -8 9 -4 -4 5 -3 15 4 23 8 11 7 12
-5 8 -22 -9 -30 12 -14 35 8 11 16 19 18 17 2 -1 -4 6 -13 16 -21 21 -23 37
-5 37 7 0 13 11 13 24 0 14 -4 22 -8 20 -5 -3 -6 -9 -3 -14 3 -5 1 -11 -3 -14
-5 -3 -7 11 -5 32 5 46 5 50 0 88 -2 23 1 30 10 27 19 -7 16 7 -4 24 -17 14
-17 14 0 9 10 -3 16 -2 12 3 -3 5 1 12 7 15 7 4 2 4 -12 2 -24 -5 -24 -4 -6 9
11 8 14 15 7 15 -7 0 -9 5 -6 10 3 6 1 10 -6 10 -7 0 -5 9 6 26 9 15 12 23 6
20 -6 -4 -11 -4 -12 1 0 4 -2 18 -3 30 -2 19 0 21 13 11 9 -7 13 -8 9 -4 -4 5
-3 15 4 23 8 11 7 12 -5 8 -19 -8 -32 12 -18 28 15 18 22 70 10 77 -5 4 -11
16 -14 28 -3 19 -1 21 15 12 15 -8 17 -7 13 10 -4 16 -2 19 11 14 9 -3 13 -11
9 -17 -3 -6 -1 -7 6 -3 8 6 9 12 2 20 -8 9 -7 13 4 13 8 0 17 -7 20 -15 3 -8
11 -12 18 -9 8 3 20 1 28 -5 11 -8 10 -9 -3 -4 -12 3 -18 0 -18 -10 0 -11 6
-14 23 -9 15 4 18 4 8 -3 -8 -6 -10 -15 -6 -22 6 -9 4 -11 -5 -5 -10 6 -12 4
-7 -9 4 -10 7 -20 7 -22 0 -3 4 -3 8 0 10 6 7 -48 -4 -65 -5 -9 -2 -11 12 -6
16 6 17 5 4 -5 -13 -11 -18 -31 -10 -40 1 -2 3 -10 5 -18 2 -8 8 -29 13 -47 6
-17 7 -35 4 -39 -4 -4 0 -5 10 -1 14 5 15 1 8 -24 -5 -18 -5 -27 1 -24 5 4 9
3 10 -2 0 -4 2 -18 3 -30 1 -12 -2 -19 -7 -16 -5 3 -4 -4 2 -14 6 -11 7 -23 4
-27 -6 -6 12 -10 30 -7 5 1 6 -3 2 -9 -3 -6 -11 -8 -16 -5 -5 3 -6 -1 -3 -10
5 -13 9 -13 23 -3 10 8 8 3 -4 -11 -14 -17 -16 -25 -7 -28 6 -3 12 -14 12 -24
0 -13 4 -18 12 -13 7 4 8 3 4 -5 -4 -6 -11 -9 -15 -7 -6 4 -7 -20 -2 -43 1 -2
7 2 15 8 11 9 16 9 22 0 4 -7 3 -10 -2 -7 -5 3 -14 0 -21 -7 -10 -11 -7 -15
15 -23 15 -6 20 -11 11 -11 -9 -1 -16 -8 -16 -16 0 -11 4 -12 13 -4 9 8 10 2
4 -25 -4 -19 -5 -35 -1 -34 3 0 13 0 21 -1 12 -1 12 -4 -2 -12 -10 -5 -18 -15
-18 -22 0 -8 3 -8 8 -2 12 17 27 15 41 -7 7 -11 8 -17 3 -14 -5 3 -12 -3 -15
-14 -3 -11 -1 -18 4 -14 10 6 11 3 14 -49 2 -37 20 -61 37 -51 12 8 9 -11 -4
-24 -9 -9 -9 -12 1 -12 11 0 11 -3 0 -17 -10 -11 -10 -14 -1 -9 7 4 12 2 12
-4 0 -6 5 -8 10 -5 6 4 10 3 9 -2 -1 -4 -1 -17 0 -28 1 -17 3 -18 11 -5 5 8
10 10 10 5 0 -6 -5 -16 -12 -23 -9 -9 -9 -12 1 -12 7 0 9 -4 6 -10 -3 -5 3
-17 14 -26 13 -11 18 -25 15 -42 -4 -19 -1 -23 10 -19 12 5 13 1 6 -17 -7 -19
-4 -26 15 -36 14 -7 22 -17 19 -21 -2 -4 3 -12 12 -17 15 -8 15 -10 0 -15 -11
-5 -15 -3 -10 5 4 7 3 8 -4 4 -15 -9 -15 -11 5 -27 14 -12 16 -12 9 1 -4 9 -2
8 7 -2 8 -10 18 -14 22 -10 5 4 5 1 1 -6 -5 -7 -15 -11 -23 -8 -8 4 -11 1 -7
-5 3 -6 15 -8 26 -6 11 3 17 3 14 0 -3 -4 0 -13 7 -21 8 -11 8 -14 0 -9 -6 4
-14 3 -18 -3 -3 -5 2 -10 12 -10 15 0 16 -2 3 -11 -12 -9 -11 -10 6 -6 17 4
20 0 18 -19 -1 -13 2 -26 7 -30 5 -3 7 -9 4 -14 -3 -5 -1 -11 4 -14 10 -7 9
13 -2 31 -4 6 -2 15 4 19 7 4 9 3 5 -4 -3 -6 -2 -13 3 -16 5 -4 7 -18 5 -32
-4 -21 -2 -25 11 -20 9 3 13 2 10 -4 -3 -6 -1 -10 4 -10 6 0 11 -5 11 -11 0
-5 -5 -7 -11 -4 -6 4 -5 -2 2 -13 7 -12 17 -18 21 -16 4 3 8 -2 8 -10 0 -9 6
-16 13 -16 8 0 7 -4 -3 -10 -13 -8 -13 -10 1 -10 22 0 31 -24 16 -40 -9 -10
-9 -11 1 -6 6 4 12 2 12 -4 0 -6 4 -9 9 -6 5 3 11 -1 14 -9 4 -10 1 -12 -11
-9 -11 4 -9 1 4 -8 12 -7 20 -22 19 -34 -1 -11 4 -21 11 -21 7 0 11 9 9 19 -2
10 0 16 5 13 10 -6 8 -24 -4 -44 -7 -10 -6 -12 4 -6 10 6 12 4 6 -10 -5 -15
-4 -16 8 -6 12 10 13 9 9 -8 -5 -20 5 -27 31 -22 5 1 4 -4 -3 -12 -9 -12 -8
-16 5 -21 11 -4 14 -13 11 -28 -4 -16 -3 -18 6 -9 6 6 16 11 21 11 6 0 5 -5
-2 -12 -17 -17 -15 -31 3 -25 8 4 17 1 21 -5 4 -6 3 -8 -3 -5 -6 4 -13 -2 -16
-14 -4 -14 -2 -18 6 -11 7 4 18 8 25 8 14 -1 17 -21 3 -21 -5 0 -13 -4 -18 -8
-4 -5 -2 -7 6 -5 7 2 16 -3 18 -10 3 -8 -1 -10 -14 -6 -17 6 -17 6 -1 -7 13
-10 15 -18 8 -29 -6 -10 -10 -11 -10 -2 0 6 -5 12 -12 12 -6 0 -8 -3 -5 -7 4
-3 -1 -12 -11 -20 -9 -8 -11 -12 -4 -8 10 5 11 -9 3 -43 -1 -1 -11 3 -23 9
-22 12 -22 11 -8 -6 14 -17 13 -18 -2 -12 -10 3 -18 2 -18 -2 0 -5 5 -11 12
-13 8 -3 8 -9 -1 -24 -8 -11 -11 -13 -8 -3 3 9 -1 16 -8 16 -8 0 -11 -7 -7
-15 3 -10 1 -13 -6 -8 -8 5 -10 1 -5 -10 4 -11 2 -15 -4 -11 -6 4 -14 0 -17
-9 -10 -25 -7 -27 12 -13 15 13 16 12 4 -3 -8 -9 -19 -15 -26 -12 -9 4 -12 -3
-10 -21 2 -19 -1 -25 -11 -21 -8 3 -17 1 -20 -4 -4 -6 1 -10 10 -10 13 0 14
-2 3 -14 -7 -8 -14 -10 -16 -5 -8 20 -20 8 -17 -17 2 -18 -2 -24 -11 -20 -8 3
-13 0 -11 -7 1 -7 -3 -11 -10 -10 -6 1 -10 -8 -8 -23 1 -13 -2 -27 -6 -30 -5
-3 -9 0 -9 7 0 7 -3 9 -6 6 -4 -4 -2 -13 5 -21 9 -11 8 -15 -4 -20 -11 -4 -14
-2 -9 6 4 7 3 8 -5 4 -6 -4 -9 -11 -6 -16 3 -4 -2 -11 -10 -14 -16 -6 -16 -26
0 -39 6 -5 1 -7 -12 -4 -15 3 -20 1 -16 -9 3 -8 10 -11 16 -7 6 3 7 1 3 -6 -6
-9 -11 -9 -24 1 -14 12 -14 10 -2 -12 12 -23 12 -24 -3 -12 -14 12 -16 11 -12
-7 2 -12 -1 -21 -7 -21 -6 0 -3 -10 8 -22 13 -16 14 -19 2 -10 -14 11 -17 10
-23 -8 -4 -14 -12 -19 -22 -15 -14 5 -14 3 -2 -12 12 -15 12 -16 -3 -10 -12 4
-15 2 -11 -8 3 -8 10 -12 15 -9 6 4 5 -3 -1 -15 -12 -21 -30 -24 -43 -6 -5 6
-8 5 -8 -3 0 -7 6 -15 14 -18 12 -5 12 -8 -2 -23 -9 -10 -21 -16 -26 -13 -5 3
-6 0 -2 -7 4 -6 12 -9 17 -6 5 4 9 1 9 -5 0 -8 -10 -10 -27 -6 -24 5 -25 5
-10 -5 18 -11 18 -12 -1 -29 -13 -12 -19 -30 -18 -49 2 -26 0 -28 -16 -20 -14
7 -16 6 -12 -6 4 -8 1 -22 -6 -30 -7 -8 -9 -15 -5 -15 4 0 3 -6 -4 -13 -8 -10
-7 -17 1 -25 16 -16 31 -15 22 1 -6 10 -4 10 7 0 16 -16 33 -17 23 -1 -4 7 -3
8 5 4 6 -4 9 -10 7 -14 -2 -4 3 -13 11 -21 13 -12 15 -11 9 10 -3 13 -3 18 0
11 3 -6 10 -10 15 -7 5 4 6 0 3 -8 -3 -8 0 -18 7 -23 7 -4 10 -3 6 3 -4 6 0
13 8 16 10 4 12 1 8 -11 -6 -14 -4 -15 8 -5 13 10 16 10 16 -2 0 -8 -4 -12 -8
-9 -4 2 -10 0 -14 -6 -3 -5 1 -10 10 -10 10 0 13 -5 9 -12 -6 -10 -5 -10 7 -2
11 9 17 8 29 -4 13 -14 12 -15 -2 -9 -12 4 -15 2 -11 -8 3 -8 9 -13 13 -10 4
3 11 -2 14 -11 3 -8 10 -12 16 -9 6 4 7 -1 3 -10 -3 -10 0 -21 8 -27 10 -7 7
-8 -11 -4 -14 3 -19 3 -12 0 6 -3 10 -10 6 -15 -3 -5 -2 -9 3 -8 22 4 25 -2 7
-16 -19 -15 -19 -15 1 -8 17 6 18 5 7 -9 -9 -11 -10 -18 -2 -23 7 -4 7 -12 0
-26 -8 -14 -7 -19 2 -19 9 0 9 -3 -2 -10 -13 -8 -13 -10 -1 -10 11 0 10 -4 -5
-16 -10 -8 -14 -13 -7 -10 15 8 27 -10 13 -19 -5 -3 -10 -11 -10 -16 0 -6 3
-8 8 -6 4 3 7 -6 7 -19 0 -13 -4 -24 -8 -24 -5 0 -5 -6 0 -12 11 -19 13 -39 2
-32 -11 6 -12 -9 -2 -20 11 -11 9 -50 -2 -58 -6 -5 -4 -8 4 -8 11 0 10 -4 -5
-16 -10 -8 -14 -13 -7 -10 15 8 27 -10 13 -19 -5 -3 -10 -11 -10 -16 0 -6 3
-8 8 -6 4 3 7 -6 7 -19 0 -13 -4 -24 -9 -24 -5 0 -4 -6 1 -12 11 -15 11 -48 0
-65 -5 -8 -3 -13 5 -13 10 0 9 -3 -2 -11 -12 -8 -12 -12 -2 -16 10 -4 10 -8 1
-19 -8 -10 -8 -14 0 -14 6 0 11 -8 11 -17 0 -13 3 -14 8 -6 4 7 18 11 30 8 12
-2 24 0 27 5 3 5 -4 7 -15 5 -11 -2 -18 0 -15 4 3 5 20 8 39 7 31 -1 33 0 24
19 -11 20 -11 20 11 1 21 -19 21 -19 15 -1 -6 14 -4 16 7 9 20 -12 40 -14 33
-3 -3 5 -10 6 -16 3 -7 -4 -8 -2 -4 4 4 6 13 9 22 5 9 -3 14 0 12 7 -2 7 4 15
12 17 13 4 13 3 0 -6 -8 -6 -11 -11 -7 -11 5 0 23 10 40 22 27 20 30 20 24 4
-6 -16 -5 -17 7 -6 9 6 14 16 13 22 -1 6 8 12 21 14 16 3 21 0 16 -8 -5 -10
-3 -10 7 0 12 11 12 14 -1 22 -8 5 -10 10 -4 10 6 0 14 -3 18 -7 11 -12 37
-12 29 0 -4 6 0 8 10 4 12 -4 14 -2 10 10 -4 10 -2 14 5 9 6 -3 13 -2 17 4 3
5 1 10 -6 10 -7 0 -9 3 -6 6 4 4 14 1 24 -7 14 -12 16 -12 8 0 -6 11 -4 13 9
8 10 -4 15 -3 11 3 -3 6 1 10 9 10 9 0 16 5 16 11 0 5 -6 7 -12 4 -7 -4 -3 3
10 14 18 16 28 18 47 11 19 -7 23 -6 18 5 -3 8 -10 12 -16 8 -6 -3 -7 -1 -3 6
4 6 11 9 16 6 5 -3 24 8 43 25 36 31 53 39 41 18 -4 -7 5 -2 18 12 14 14 24
28 22 32 -3 4 1 10 7 14 8 4 9 3 5 -4 -4 -7 -1 -12 8 -12 8 0 18 5 22 12 4 6
3 8 -3 5 -5 -3 -10 0 -10 7 0 8 6 12 14 9 7 -3 13 -10 13 -16 0 -6 3 -7 6 -4
4 4 1 13 -6 22 -10 12 -9 16 5 21 10 4 21 1 26 -7 6 -10 9 -7 9 13 0 15 5 30
11 34 8 4 9 -1 5 -17 -5 -20 -4 -19 7 3 10 23 16 26 26 15 7 -6 12 -7 11 -2
-5 24 1 37 15 31 8 -3 14 0 12 7 -1 7 4 11 11 9 10 -2 10 2 2 18 -10 19 -8 23
19 33 17 6 31 17 31 24 0 7 5 13 11 13 5 0 7 -5 3 -12 -4 -7 -3 -8 4 -4 7 4
12 16 12 26 0 10 5 22 10 25 6 4 7 11 4 17 -4 6 2 6 15 -1 17 -10 20 -9 15 4
-4 10 3 18 20 25 14 5 26 12 26 15 0 4 -4 3 -10 0 -5 -3 -10 -1 -10 4 0 6 5
11 11 11 5 0 7 6 3 12 -6 10 -4 10 8 0 14 -11 16 -10 11 7 -3 13 -1 21 6 21 7
0 9 -5 5 -12 -4 -6 -3 -8 4 -4 6 3 9 19 7 34 -2 15 -2 21 1 15 9 -20 20 -15
40 15 16 24 16 25 1 13 -10 -8 -20 -11 -24 -7 -3 3 -1 6 6 6 7 0 11 6 8 13 -3
8 6 12 29 11 19 -1 32 2 29 7 -3 4 -12 6 -20 2 -11 -4 -13 -1 -9 11 3 8 11 14
16 13 6 -1 13 4 16 12 2 8 0 11 -5 8 -5 -3 -10 0 -10 7 0 8 8 11 19 8 14 -3
21 2 25 17 3 11 9 19 13 16 5 -3 12 0 16 6 4 7 3 9 -4 5 -6 -3 -13 -2 -17 4
-3 5 -2 10 3 10 5 0 15 13 22 30 7 16 16 27 21 24 5 -3 6 3 2 12 -4 10 -2 15
3 11 6 -3 16 -1 24 5 12 8 12 9 -2 4 -10 -3 -20 -1 -23 4 -5 9 14 14 36 12 4
-1 5 8 2 19 -4 13 1 25 15 34 14 11 19 24 17 49 -1 22 2 33 8 29 7 -4 8 1 3
12 -5 15 -4 16 8 6 12 -10 13 -8 9 10 -5 17 -3 20 8 14 12 -8 12 -6 0 8 -12
15 -12 17 1 12 19 -8 30 28 14 46 -8 9 -7 10 8 5 16 -5 17 -4 6 9 -8 10 -9 15
-1 15 6 0 11 7 11 16 0 8 4 12 10 9 6 -4 7 1 3 11 -4 10 -2 15 4 11 5 -3 10 0
10 8 0 8 -4 12 -9 9 -4 -3 -8 -1 -8 5 0 5 4 11 10 13 5 2 10 25 11 51 2 34 5
44 11 33 5 -9 6 -22 2 -29 -5 -7 0 -6 10 3 11 8 14 16 7 18 -6 2 -11 8 -11 13
0 6 6 7 13 3 8 -5 8 -2 -2 9 -9 11 -10 17 -2 17 6 0 11 5 11 11 0 5 -5 7 -11
4 -6 -4 -5 3 3 14 11 18 11 23 -2 31 -11 7 -11 10 -2 10 7 0 11 4 7 9 -3 5 -1
12 4 16 6 3 8 -3 6 -15 -2 -11 0 -22 5 -25 4 -3 7 3 5 12 -1 10 3 28 11 40 17
27 9 54 -14 47 -15 -5 -14 -4 1 6 9 6 22 8 27 5 6 -3 7 1 4 9 -3 9 -11 13 -18
9 -7 -4 -7 -1 1 9 7 8 10 18 6 21 -3 4 -1 7 5 7 7 0 12 5 12 11 0 5 -4 8 -9 4
-5 -3 -12 -1 -16 5 -3 5 1 10 10 10 13 0 14 4 4 21 -8 15 -8 19 0 15 6 -4 11
0 11 9 0 9 -4 14 -8 11 -11 -7 -8 31 3 41 4 5 4 1 0 -7 -7 -12 -6 -13 7 -3 8
7 19 9 23 5 5 -4 5 -1 1 6 -4 7 -11 10 -16 7 -4 -2 -10 6 -12 20 -5 22 -3 23
10 13 13 -11 14 -11 8 0 -5 8 -1 21 9 32 17 18 17 19 -4 15 -14 -3 -19 0 -14
8 9 14 11 57 2 51 -15 -9 -17 25 -3 43 14 17 14 16 4 -7 -10 -23 -10 -24 4 -6
15 18 13 41 -3 32 -4 -3 -13 0 -21 6 -12 8 -12 9 3 4 9 -3 17 0 17 6 0 6 6 5
17 -3 15 -12 16 -12 8 1 -11 18 -16 37 -19 67 0 11 -4 19 -8 16 -5 -2 -8 -1
-9 4 -5 46 -4 71 2 67 4 -2 6 -16 4 -31 -2 -25 -2 -26 11 -8 10 13 11 22 3 31
-13 16 -2 37 14 28 8 -4 7 -2 -1 7 -11 12 -14 12 -23 -1 -8 -12 -9 -11 -7 5 2
11 -5 29 -15 40 -17 19 -17 20 5 38 13 10 18 16 11 13 -6 -4 -14 -2 -18 4 -3
5 -2 10 3 10 12 0 7 47 -7 64 -7 9 -7 16 2 26 10 10 9 11 -2 5 -9 -5 -12 -4
-8 3 10 15 -3 43 -17 35 -6 -3 -7 -2 -3 3 5 5 13 9 18 9 5 0 9 5 8 10 0 6 -8
8 -17 7 -14 -3 -14 -2 -1 14 7 10 9 15 3 11 -16 -9 -26 31 -13 54 6 12 5 20
-3 25 -6 4 -8 3 -4 -4 3 -6 2 -13 -3 -16 -11 -7 -9 13 3 33 6 10 5 12 -2 7
-15 -9 -15 -1 -1 26 8 15 8 19 0 14 -6 -4 -11 -2 -11 4 0 6 -4 8 -10 5 -6 -4
-10 5 -10 20 0 17 -4 24 -12 19 -7 -5 -8 -3 -2 7 12 19 14 39 4 39 -4 0 -10 7
-14 15 -3 8 -2 14 2 14 19 -3 23 2 12 16 -7 8 -21 15 -31 15 -11 0 -19 5 -19
11 0 5 5 7 10 4 6 -3 10 -2 10 4 0 5 -5 13 -11 17 -6 3 -9 19 -7 34 3 17 -1
27 -9 27 -6 0 -9 -5 -6 -10 3 -6 1 -7 -5 -3 -8 5 -8 15 -2 32 6 16 6 23 0 19
-5 -3 -14 3 -19 14 -14 25 -14 34 0 25 8 -4 8 -1 0 14 -7 14 -17 19 -28 15
-11 -4 -14 -3 -9 5 4 7 2 12 -6 12 -9 0 -9 3 2 10 13 8 12 10 -2 10 -10 0 -18
5 -18 11 0 5 4 8 9 4 5 -3 12 -1 16 5 3 6 -1 13 -9 16 -9 3 -13 11 -9 17 3 6
1 7 -6 3 -6 -4 -9 -12 -6 -17 4 -5 1 -9 -5 -9 -7 0 -10 6 -7 14 3 8 -3 24 -14
37 -22 25 -25 37 -6 20 10 -8 14 -7 14 2 0 16 -29 18 -40 3 -4 -6 -5 2 -1 18
6 23 4 27 -7 21 -11 -7 -11 -5 1 10 12 15 12 17 1 10 -11 -6 -13 -4 -8 7 8 21
-3 31 -19 17 -9 -8 -11 -5 -7 10 3 13 1 21 -6 21 -7 0 -9 -5 -5 -12 5 -7 3 -8
-5 -4 -9 6 -8 12 4 26 15 16 14 17 -10 14 -22 -2 -25 1 -19 18 4 15 3 18 -7
13 -9 -6 -11 -3 -5 10 5 15 4 16 -9 5 -13 -11 -16 -11 -13 1 2 8 8 18 13 22 6
5 0 6 -12 2 -20 -5 -21 -3 -18 27 3 27 2 30 -6 15 -10 -17 -13 -16 -35 14 -26
36 -29 43 -14 34 6 -3 10 -4 10 -1 0 3 -15 13 -32 21 -18 8 -24 13 -13 10 15
-5 17 -3 9 5 -6 6 -20 13 -30 15 -11 2 -21 4 -23 4 -2 1 2 8 9 16 11 13 10 14
-6 9 -10 -4 -16 -4 -12 0 9 11 -24 46 -36 39 -6 -4 -5 0 2 9 10 13 10 18 1 24
-8 4 -9 3 -5 -4 4 -7 1 -12 -8 -12 -9 0 -15 3 -15 8 3 20 -3 31 -20 37 -13 4
-18 12 -15 23 5 14 4 14 -4 3 -9 -12 -12 -12 -26 1 -8 9 -13 18 -10 21 3 2 -7
8 -21 11 -23 6 -25 9 -14 22 10 12 10 15 -2 12 -8 -2 -13 3 -11 10 1 8 -2 11
-8 7 -6 -3 -8 -10 -6 -14 3 -4 -1 -8 -8 -8 -8 0 -12 6 -9 14 3 7 0 13 -7 13
-6 0 -8 5 -4 13 5 7 0 6 -11 -3 -17 -14 -18 -14 -5 10 12 22 12 24 -2 12 -11
-9 -17 -9 -20 -2 -2 6 -10 12 -18 13 -18 3 -25 16 -14 25 4 4 5 2 1 -3 -3 -6
3 -11 14 -11 19 0 19 1 3 13 -12 8 -22 9 -35 2 -16 -8 -22 -4 -37 20 -15 25
-21 28 -32 18 -10 -10 -11 -9 -5 2 6 10 2 11 -16 6 l-24 -8 20 19 c12 11 15
15 8 10 -8 -5 -15 -3 -18 7 -4 9 -17 14 -35 12 -22 -2 -28 1 -25 15 2 9 -1 23
-7 31 -8 11 -9 10 -4 -3 3 -10 1 -18 -4 -18 -6 0 -10 5 -10 11 0 5 -4 7 -10 4
-5 -3 -10 1 -10 10 0 9 -5 13 -10 10 -6 -4 -8 -10 -6 -14 3 -4 -2 -8 -10 -8
-10 0 -11 4 -4 11 17 17 11 29 -7 15 -9 -8 -14 -9 -10 -3 4 6 -2 19 -13 29
-11 10 -20 15 -20 10 0 -4 -6 -2 -14 4 -11 10 -16 9 -24 -5 -8 -15 -9 -15 -15
1 -4 9 -12 13 -18 9 -8 -4 -9 -3 -5 5 6 9 11 9 22 0 10 -8 14 -8 14 0 0 10
-13 15 -32 12 -5 0 -8 4 -8 9 0 6 -5 10 -11 10 -5 0 -7 -5 -3 -11 4 -8 0 -8
-15 0 -11 7 -21 14 -21 17 0 3 4 3 9 -1 5 -3 12 -1 16 4 3 6 -6 8 -21 5 -17
-3 -31 1 -41 13 -13 16 -14 16 -9 1 3 -12 1 -15 -9 -11 -8 3 -12 10 -8 17 4 6
-2 4 -12 -4 -11 -9 -16 -10 -11 -2 6 11 -11 17 -36 13 -11 -2 -10 13 2 25 7 7
2 10 -14 10 -14 0 -22 -4 -20 -8 3 -5 10 -5 16 -2 7 4 8 2 4 -4 -8 -13 -36 -5
-36 10 0 6 -8 4 -17 -3 -11 -10 -14 -10 -9 -1 9 15 2 15 -27 1 -22 -10 -22
-10 -2 6 19 16 18 16 -20 11 -27 -4 -35 -3 -25 3 8 5 18 7 24 4 5 -3 6 -1 3 5
-4 5 -17 8 -30 5 -18 -4 -19 -3 -7 6 8 6 10 11 4 11 -5 0 -15 -5 -22 -12 -9
-9 -12 -9 -12 1 0 9 -12 12 -40 9 -37 -3 -45 2 -41 25 1 5 -3 5 -9 2 -6 -4
-19 0 -29 9 -15 14 -18 14 -18 1 0 -8 5 -11 10 -8 6 3 7 1 3 -6 -6 -9 -11 -9
-22 0 -7 6 -11 16 -7 23 4 6 -1 4 -12 -4 -10 -8 -21 -14 -24 -13 -3 0 -5 -3
-3 -9 1 -5 -2 -7 -8 -3 -6 3 -8 11 -4 17 4 5 -2 8 -13 6 -11 -2 -28 4 -39 12
-17 13 -18 13 -7 0 10 -13 9 -16 -7 -16 -10 0 -17 3 -14 7 2 4 -3 9 -11 12 -9
4 -12 1 -9 -8 3 -8 0 -13 -8 -11 -21 3 -39 17 -33 26 3 5 1 11 -4 15 -6 3 -8
-3 -6 -15 2 -11 -1 -22 -6 -26 -5 -3 -8 0 -7 7 2 7 -10 13 -29 15 -20 1 -31
-2 -29 -9 1 -7 1 -9 -1 -4 -3 4 -10 4 -16 0 -6 -4 -8 0 -4 9 8 21 -3 30 -20
17 -10 -9 -17 -8 -30 2 -11 10 -14 10 -9 2 4 -8 2 -13 -4 -13 -6 0 -8 -5 -4
-12 6 -10 5 -10 -7 -1 -20 16 -31 17 -39 3 -12 -19 -29 -3 -24 23 2 12 1 16
-2 9 -5 -10 -9 -10 -22 0 -14 10 -15 10 -4 -2z m-20 -29 c9 -5 2 -8 -20 -9
-23 -1 -28 2 -18 8 18 12 22 12 38 1z m147 -1 c3 -5 1 -10 -4 -10 -6 0 -11 5
-11 10 0 6 2 10 4 10 3 0 8 -4 11 -10z m99 -8 c3 -5 -1 -9 -9 -9 -8 0 -12 4
-9 9 3 4 7 8 9 8 2 0 6 -4 9 -8z m-518 -24 c4 -7 3 -8 -4 -4 -7 4 -12 2 -12
-5 0 -7 -3 -10 -6 -6 -6 5 3 27 11 27 2 0 7 -5 11 -12z m736 -10 c-7 -7 -12
-8 -12 -2 0 6 3 14 7 17 3 4 9 5 12 2 2 -3 -1 -11 -7 -17z m-1332 -182 c0 -3
-4 -8 -10 -11 -5 -3 -10 -1 -10 4 0 6 5 11 10 11 6 0 10 -2 10 -4z m1954 -17
c-3 -5 -10 -7 -15 -3 -5 3 -7 10 -3 15 3 5 10 7 15 3 5 -3 7 -10 3 -15z
m-2315 -202 c-2 -1 -11 -8 -21 -15 -12 -10 -18 -10 -24 -1 -4 7 -3 9 4 5 6 -3
13 -2 17 4 3 5 11 10 17 10 6 0 9 -1 7 -3z m1424 -152 c-3 -9 -8 -14 -10 -11
-3 3 -2 9 2 15 9 16 15 13 8 -4z m142 -115 c-3 -5 -1 -10 6 -10 7 0 10 -3 6
-6 -9 -9 -28 6 -22 17 4 5 8 9 11 9 3 0 2 -4 -1 -10z m-350 -89 c3 -5 2 -12
-3 -15 -5 -3 -9 1 -9 9 0 17 3 19 12 6z m380 -1 c3 -5 1 -10 -4 -10 -6 0 -11
5 -11 10 0 6 2 10 4 10 3 0 8 -4 11 -10z m-638 -335 c0 -8 -4 -12 -9 -9 -5 3
-6 10 -3 15 9 13 12 11 12 -6z m258 -144 c3 -5 2 -12 -3 -15 -5 -3 -9 1 -9 9
0 17 3 19 12 6z m2169 -150 c4 -5 -3 -7 -14 -4 -23 6 -26 13 -6 13 8 0 17 -4
20 -9z m-2599 -211 c3 -6 -1 -7 -9 -4 -18 7 -21 14 -7 14 6 0 13 -4 16 -10z
m430 -119 c3 -5 2 -12 -3 -15 -5 -3 -9 1 -9 9 0 17 3 19 12 6z m-575 -175 c0
-3 -4 -8 -10 -11 -5 -3 -10 -1 -10 4 0 6 5 11 10 11 6 0 10 -2 10 -4z m2864
-228 c-10 -16 -25 -7 -19 11 3 11 1 22 -5 26 -5 3 -10 12 -10 18 0 7 9 -1 19
-17 11 -17 18 -33 15 -38z m-4354 -92 c0 -2 -8 -10 -17 -17 -16 -13 -17 -12
-4 4 13 16 21 21 21 13z m4340 -31 c14 -19 14 -19 -2 -6 -10 7 -18 18 -18 24
0 6 1 8 3 6 1 -2 9 -13 17 -24z m15 -45 c-3 -5 -12 -10 -18 -10 -7 0 -6 4 3
10 19 12 23 12 15 0z m-2432 -104 c4 -10 1 -13 -8 -9 -8 3 -12 9 -9 14 7 12
11 11 17 -5z m2395 -188 c-2 -6 -12 -12 -22 -14 -14 -2 -15 0 -5 12 14 17 32
19 27 2z m-1984 -17 c3 -4 -4 -17 -15 -27 -18 -16 -19 -16 -13 -1 3 9 10 17
16 17 5 0 6 5 3 10 -3 6 -4 10 -1 10 3 0 7 -4 10 -9z m-2288 -27 c2 -12 -1
-13 -12 -3 -7 6 -11 16 -8 21 7 11 17 3 20 -18z m2181 -36 c-3 -8 -6 -5 -6 6
-1 11 2 17 5 13 3 -3 4 -12 1 -19z m-37 8 c0 -3 -4 -8 -10 -11 -5 -3 -10 -1
-10 4 0 6 5 11 10 11 6 0 10 -2 10 -4z m740 -125 c0 -5 -7 -12 -16 -15 -14 -5
-15 -4 -4 9 14 17 20 19 20 6z m-1420 -145 c0 -2 -8 -10 -17 -17 -16 -13 -17
-12 -4 4 13 16 21 21 21 13z m2690 -30 c0 -3 -4 -8 -10 -11 -5 -3 -10 -1 -10
4 0 6 5 11 10 11 6 0 10 -2 10 -4z m-4020 -52 c0 -2 -9 0 -20 6 -11 6 -20 13
-20 16 0 2 9 0 20 -6 11 -6 20 -13 20 -16z m3955 -104 c-3 -5 -11 -10 -16 -10
-6 0 -7 5 -4 10 3 6 11 10 16 10 6 0 7 -4 4 -10z m-3845 -140 c-14 -9 -7 -14
13 -11 5 1 6 -3 2 -9 -5 -8 -11 -8 -21 1 -15 12 -10 29 9 29 7 0 6 -4 -3 -10z
m2350 -104 c0 -2 -7 -7 -16 -10 -8 -3 -12 -2 -9 4 6 10 25 14 25 6z m-1994
-354 c-4 -3 -14 2 -24 12 -16 18 -16 18 6 6 13 -6 21 -14 18 -18z m3029 -12
c-3 -5 -12 -10 -18 -10 -7 0 -6 4 3 10 19 12 23 12 15 0z m-2734 -227 c13 -16
12 -17 -3 -4 -17 13 -22 21 -14 21 2 0 10 -8 17 -17z"/>
<path d="M2536 4793 c-6 -14 -5 -15 5 -6 7 7 10 15 7 18 -3 3 -9 -2 -12 -12z"/>
<path d="M2130 4759 c0 -6 -6 -9 -14 -6 -8 3 -20 -2 -28 -11 -12 -15 -11 -16
5 -3 13 10 17 10 17 1 0 -9 3 -10 13 -1 8 6 17 8 21 4 4 -4 4 0 0 10 -7 19
-14 22 -14 6z"/>
<path d="M1365 4671 c-3 -5 -2 -12 3 -15 5 -3 9 1 9 9 0 17 -3 19 -12 6z"/>
<path d="M1600 4590 c-9 -6 -10 -10 -3 -10 6 0 15 5 18 10 8 12 4 12 -15 0z"/>
<path d="M1185 4550 c-3 -5 -1 -10 4 -10 6 0 11 5 11 10 0 6 -2 10 -4 10 -3 0
-8 -4 -11 -10z"/>
<path d="M3953 4515 c0 -8 4 -12 9 -9 4 3 8 9 8 15 0 5 -4 9 -8 9 -5 0 -9 -7
-9 -15z"/>
<path d="M3691 4484 c0 -11 3 -14 6 -6 3 7 2 16 -1 19 -3 4 -6 -2 -5 -13z"/>
<path d="M3810 4400 c13 -24 17 -25 17 -5 0 8 -6 16 -14 19 -11 4 -11 1 -3
-14z"/>
<path d="M4140 4370 c-9 -6 -10 -10 -3 -10 6 0 15 5 18 10 8 12 4 12 -15 0z"/>
<path d="M4320 4200 c0 -5 5 -10 11 -10 5 0 7 5 4 10 -3 6 -8 10 -11 10 -2 0
-4 -4 -4 -10z"/>
<path d="M709 4098 c-16 -24 -17 -28 -3 -13 10 11 25 26 33 33 9 7 10 12 4 12
-7 0 -22 -15 -34 -32z"/>
<path d="M2670 4120 c0 -5 7 -7 15 -4 8 4 15 8 15 10 0 2 -7 4 -15 4 -8 0 -15
-4 -15 -10z"/>
<path d="M4256 4001 c-3 -5 2 -15 12 -22 15 -12 16 -12 5 2 -7 9 -10 19 -6 22
3 4 4 7 0 7 -3 0 -8 -4 -11 -9z"/>
<path d="M838 3983 c6 -2 9 -10 6 -15 -4 -7 -2 -8 5 -4 13 9 5 26 -12 25 -9 0
-8 -2 1 -6z"/>
<path d="M2830 3879 c0 -5 5 -7 10 -4 6 3 10 8 10 11 0 2 -4 4 -10 4 -5 0 -10
-5 -10 -11z"/>
<path d="M531 3846 c-9 -11 -9 -16 1 -22 7 -4 10 -4 6 1 -4 4 -3 14 3 22 6 7
9 13 6 13 -2 0 -10 -6 -16 -14z"/>
<path d="M2676 3805 c-3 -8 -1 -15 4 -15 6 0 10 7 10 15 0 8 -2 15 -4 15 -2 0
-6 -7 -10 -15z"/>
<path d="M2246 3752 c-3 -4 4 -9 15 -9 23 -2 25 3 4 10 -8 4 -16 3 -19 -1z"/>
<path d="M4650 3731 c0 -7 -5 -9 -12 -5 -7 5 -8 3 -3 -5 5 -9 10 -10 18 -2 6
6 8 14 4 18 -4 3 -7 1 -7 -6z"/>
<path d="M2670 3640 c0 -5 7 -7 15 -4 8 4 15 8 15 10 0 2 -7 4 -15 4 -8 0 -15
-4 -15 -10z"/>
<path d="M2966 3422 c-2 -4 -1 -14 4 -22 7 -11 9 -9 7 8 -1 24 -3 26 -11 14z"/>
<path d="M2120 3363 c0 -6 8 -17 18 -24 16 -13 16 -13 2 6 -8 11 -16 22 -17
24 -2 2 -3 0 -3 -6z"/>
<path d="M2676 3325 c-3 -8 -1 -15 4 -15 6 0 10 7 10 15 0 8 -2 15 -4 15 -2 0
-6 -7 -10 -15z"/>
<path d="M3026 3243 c-6 -14 -5 -15 5 -6 7 7 10 15 7 18 -3 3 -9 -2 -12 -12z"/>
<path d="M2670 3160 c0 -5 7 -7 15 -4 8 4 15 8 15 10 0 2 -7 4 -15 4 -8 0 -15
-4 -15 -10z"/>
<path d="M4696 3098 c3 -5 10 -6 15 -3 13 9 11 12 -6 12 -8 0 -12 -4 -9 -9z"/>
<path d="M1926 2914 c-5 -14 -4 -15 9 -4 17 14 19 20 6 20 -5 0 -12 -7 -15
-16z"/>
<path d="M4917 2859 c7 -7 15 -10 18 -7 3 3 -2 9 -12 12 -14 6 -15 5 -6 -5z"/>
<path d="M2676 2845 c-3 -8 -1 -15 4 -15 6 0 10 7 10 15 0 8 -2 15 -4 15 -2 0
-6 -7 -10 -15z"/>
<path d="M4720 2846 c0 -2 6 -9 13 -15 10 -8 14 -7 14 4 0 8 -6 15 -14 15 -7
0 -13 -2 -13 -4z"/>
<path d="M2670 2680 c0 -5 7 -7 15 -4 8 4 15 8 15 10 0 2 -7 4 -15 4 -8 0 -15
-4 -15 -10z"/>
<path d="M355 2640 c-3 -5 1 -10 10 -10 9 0 13 5 10 10 -3 6 -8 10 -10 10 -2
0 -7 -4 -10 -10z"/>
<path d="M361 2598 c5 -10 11 -18 12 -18 2 0 3 8 3 18 0 10 -6 19 -13 19 -8 0
-9 -6 -2 -19z"/>
<path d="M355 2560 c4 -6 11 -8 16 -5 14 9 11 15 -7 15 -8 0 -12 -5 -9 -10z"/>
<path d="M2700 2566 c0 -2 8 -10 18 -17 15 -13 16 -12 3 4 -13 16 -21 21 -21
13z"/>
<path d="M2770 2460 c8 -5 20 -10 25 -10 6 0 3 5 -5 10 -8 5 -19 10 -25 10 -5
0 -3 -5 5 -10z"/>
<path d="M3455 2440 c-3 -5 -1 -10 4 -10 6 0 11 5 11 10 0 6 -2 10 -4 10 -3 0
-8 -4 -11 -10z"/>
<path d="M2805 2260 c-3 -5 -1 -10 4 -10 6 0 11 5 11 10 0 6 -2 10 -4 10 -3 0
-8 -4 -11 -10z"/>
<path d="M4910 2259 c0 -5 5 -7 10 -4 6 3 10 8 10 11 0 2 -4 4 -10 4 -5 0 -10
-5 -10 -11z"/>
<path d="M4886 2087 c3 -10 9 -15 12 -12 3 3 0 11 -7 18 -10 9 -11 8 -5 -6z"/>
<path d="M290 1916 c0 -8 4 -17 9 -20 5 -4 7 3 4 14 -6 23 -13 26 -13 6z"/>
<path d="M4820 1896 c0 -2 7 -7 16 -10 8 -3 12 -2 9 4 -6 10 -25 14 -25 6z"/>
<path d="M3156 1725 c-3 -8 -1 -15 4 -15 6 0 10 7 10 15 0 8 -2 15 -4 15 -2 0
-6 -7 -10 -15z"/>
<path d="M595 1620 c-3 -5 -1 -10 4 -10 6 0 11 5 11 10 0 6 -2 10 -4 10 -3 0
-8 -4 -11 -10z"/>
<path d="M410 1586 c0 -2 7 -7 16 -10 8 -3 12 -2 9 4 -6 10 -25 14 -25 6z"/>
<path d="M480 1426 c0 -2 7 -9 15 -16 9 -7 15 -8 15 -2 0 5 -7 12 -15 16 -8 3
-15 4 -15 2z"/>
<path d="M3190 1226 c0 -2 7 -7 16 -10 8 -3 12 -2 9 4 -6 10 -25 14 -25 6z"/>
<path d="M1890 1201 c0 -10 19 -25 25 -20 1 2 -3 10 -11 17 -8 7 -14 8 -14 3z"/>
<path d="M4186 1131 c-4 -5 -2 -12 3 -15 5 -4 12 -2 15 3 4 5 2 12 -3 15 -5 4
-12 2 -15 -3z"/>
<path d="M763 1046 c1 -11 9 -21 17 -23 10 -3 11 -2 4 4 -6 4 -14 15 -17 23
-5 11 -6 9 -4 -4z"/>
<path d="M4101 1051 c-9 -6 -10 -11 -2 -15 6 -4 11 -2 11 4 0 6 5 8 12 4 7 -4
8 -3 4 4 -8 14 -7 14 -25 3z"/>
<path d="M1891 996 c-8 -10 -9 -16 -1 -21 5 -3 10 -5 11 -3 4 18 7 38 4 38 -1
0 -8 -6 -14 -14z"/>
<path d="M4293 975 c0 -8 4 -12 9 -9 4 3 8 9 8 15 0 5 -4 9 -8 9 -5 0 -9 -7
-9 -15z"/>
<path d="M3820 804 c-9 -10 -9 -14 -1 -14 6 0 11 4 11 10 0 5 7 7 15 4 8 -4
15 -4 15 -1 0 13 -30 14 -40 1z"/>
<path d="M1891 756 c-8 -10 -9 -16 -1 -21 5 -3 10 -5 11 -3 4 18 7 38 4 38 -1
0 -8 -6 -14 -14z"/>
<path d="M3720 750 c-12 -8 -10 -10 8 -10 13 0 20 4 17 10 -7 12 -6 12 -25 0z"/>
<path d="M1413 725 c0 -8 4 -12 9 -9 5 3 6 10 3 15 -9 13 -12 11 -12 -6z"/>
<path d="M3526 627 c3 -10 9 -15 12 -12 3 3 0 11 -7 18 -10 9 -11 8 -5 -6z"/>
<path d="M3841 613 c-1 -17 16 -25 25 -12 4 7 3 9 -4 5 -5 -3 -13 0 -15 6 -4
9 -6 10 -6 1z"/>
<path d="M1270 600 c0 -5 5 -10 11 -10 5 0 7 5 4 10 -3 6 -8 10 -11 10 -2 0
-4 -4 -4 -10z"/>
<path d="M1670 590 c0 -5 5 -10 11 -10 5 0 7 5 4 10 -3 6 -8 10 -11 10 -2 0
-4 -4 -4 -10z"/>
<path d="M1724 569 c-4 -7 -3 -9 4 -5 5 3 13 0 15 -6 4 -9 6 -10 6 -1 1 17
-16 25 -25 12z"/>
<path d="M1801 344 c0 -11 3 -14 6 -6 3 7 2 16 -1 19 -3 4 -6 -2 -5 -13z"/>
<path d="M1870 321 c0 -5 5 -13 10 -16 6 -3 10 -2 10 4 0 5 -4 13 -10 16 -5 3
-10 2 -10 -4z"/>
<path d="M2005 276 c17 -12 45 -12 45 1 0 3 -7 3 -15 0 -8 -4 -17 -2 -20 3 -4
6 -11 10 -18 10 -6 0 -2 -6 8 -14z"/>
<path d="M2975 261 c-3 -5 -1 -12 5 -16 5 -3 10 1 10 9 0 18 -6 21 -15 7z"/>
<path d="M1266 4822 c-3 -5 1 -9 9 -9 8 0 12 4 9 9 -3 4 -7 8 -9 8 -2 0 -6 -4
-9 -8z"/>
<path d="M3940 4776 c0 -2 7 -7 16 -10 8 -3 12 -2 9 4 -6 10 -25 14 -25 6z"/>
<path d="M722 4395 c-7 -8 -9 -15 -4 -15 5 0 15 7 22 15 16 19 -1 19 -18 0z"/>
<path d="M220 3669 c0 -5 5 -7 10 -4 6 3 10 8 10 11 0 2 -4 4 -10 4 -5 0 -10
-5 -10 -11z"/>
<path d="M4905 3620 c3 -5 8 -10 11 -10 2 0 4 5 4 10 0 6 -5 10 -11 10 -5 0
-7 -4 -4 -10z"/>
<path d="M4927 3605 c-6 -15 10 -32 20 -21 4 3 1 6 -5 6 -6 0 -9 7 -6 15 4 8
4 15 1 15 -3 0 -7 -7 -10 -15z"/>
<path d="M4960 3505 c0 -2 6 -8 13 -14 10 -8 14 -7 14 2 0 8 -6 14 -14 14 -7
0 -13 -1 -13 -2z"/>
<path d="M55 3220 c-3 -5 -1 -10 4 -10 6 0 11 5 11 10 0 6 -2 10 -4 10 -3 0
-8 -4 -11 -10z"/>
<path d="M36 3138 c3 -5 10 -6 15 -3 13 9 11 12 -6 12 -8 0 -12 -4 -9 -9z"/>
<path d="M5086 2181 c-4 -5 -2 -12 3 -15 5 -4 12 -2 15 3 4 5 2 12 -3 15 -5 4
-12 2 -15 -3z"/>
<path d="M98 1853 c7 -3 16 -2 19 1 4 3 -2 6 -13 5 -11 0 -14 -3 -6 -6z"/>
<path d="M170 1641 c0 -6 4 -13 10 -16 6 -3 7 1 4 9 -7 18 -14 21 -14 7z"/>
<path d="M581 954 c0 -11 3 -14 6 -6 3 7 2 16 -1 19 -3 4 -6 -2 -5 -13z"/>
<path d="M4506 931 c-4 -5 -2 -12 3 -15 5 -4 12 -2 15 3 4 5 2 12 -3 15 -5 4
-12 2 -15 -3z"/>
<path d="M634 899 c14 -11 23 -25 20 -31 -4 -7 -2 -8 5 -4 12 8 1 30 -24 48
-24 18 -25 6 -1 -13z"/>
<path d="M3825 371 c-3 -5 -2 -12 3 -15 5 -3 9 1 9 9 0 17 -3 19 -12 6z"/>
<path d="M1541 234 c0 -11 3 -14 6 -6 3 7 2 16 -1 19 -3 4 -6 -2 -5 -13z"/>
<path d="M1673 184 c0 -8 2 -12 5 -9 3 2 13 0 23 -5 12 -7 20 -6 25 2 4 7 3
10 -1 5 -5 -4 -18 -1 -30 7 -19 12 -22 12 -22 0z"/>
<path d="M1780 160 c0 -5 5 -10 11 -10 5 0 7 5 4 10 -3 6 -8 10 -11 10 -2 0
-4 -4 -4 -10z"/>
<path d="M3313 147 c-3 -5 0 -14 6 -20 9 -9 10 -7 5 7 -5 13 -4 17 4 12 6 -3
13 -3 16 2 3 5 -2 9 -10 9 -8 0 -17 -4 -21 -10z"/>
<path d="M2141 60 c-9 -5 -4 -7 13 -7 29 0 32 2 13 10 -8 3 -20 2 -26 -3z"/>
</g>
</svg>
